<svg width="125" height="112" viewBox="0 0 125 112" fill="none" xmlns="http://www.w3.org/2000/svg">
<g filter="url(#filter0_d_147_364)">
<path d="M68.5071 0.120843L36.6644 2.12366C35.0159 2.22434 33.5895 3.18053 32.8567 4.61437C32.8544 4.63165 32.8349 4.64667 32.8326 4.66396C32.7363 4.86236 32.6596 5.04572 32.5783 5.26367L26.8889 22.2608C26.4071 22.1801 25.908 22.0972 25.4089 22.0143C25.0309 21.9472 24.6551 21.8628 24.2966 21.7807C24.1778 21.7476 24.0568 21.7317 23.9381 21.6986C18.9039 20.5296 14.4137 18.4295 11.3083 15.8249C8.48913 13.4513 7.15465 10.8851 7.64502 8.75138C8.13313 6.6349 10.4852 4.92072 14.0651 4.03548C18.0066 3.07449 22.9496 3.19415 27.9837 4.36319C28.6489 4.52061 29.3118 4.69533 29.9551 4.88506L30.1004 4.44691C30.3338 3.73894 30.6836 3.08139 31.0935 2.50205C30.2646 2.25284 29.416 2.01867 28.5803 1.82132C23.1553 0.548363 17.7711 0.44126 13.4485 1.49301C8.79881 2.62504 5.85034 4.99965 5.10315 8.15482C3.63058 14.4328 11.6558 21.4972 23.3415 24.2405C23.3761 24.245 23.4279 24.2518 23.4603 24.2736C23.9375 24.3889 24.4343 24.4891 24.9138 24.587C25.2919 24.6541 25.67 24.7212 26.048 24.7883L22.443 35.5347C22.3527 35.8218 22.2774 36.1285 22.2389 36.4224C22.0737 37.6843 22.4143 38.9774 23.2279 40.0158L70.3199 101.236C71.0989 102.27 72.2434 102.93 73.5031 103.113C74.7628 103.295 76.0018 102.965 76.9793 102.214L118.935 69.9721C119.932 69.2059 120.553 68.0915 120.699 66.8445C120.847 65.5803 120.502 64.3218 119.705 63.2856L72.6351 2.03285C71.6631 0.727468 70.1037 0.0133755 68.5071 0.120843ZM50.6915 12.7697C51.2925 13.5517 51.7047 14.4321 51.9546 15.344C52.1871 16.2537 52.2401 17.1925 52.1201 18.1087C51.8802 19.9412 50.951 21.6659 49.3674 22.8828C47.8424 24.0547 45.9472 24.5626 44.0456 24.3137C43.164 24.1982 42.3372 23.9317 41.5655 23.5142C41.791 23.4031 42.0143 23.3092 42.2421 23.1808C43.0729 22.7445 43.8046 22.26 44.4392 21.7101C45.6891 20.6252 46.4902 19.341 46.8382 17.892C46.8849 17.6695 46.9293 17.4643 46.9588 17.2396C47.1512 15.7701 46.8422 14.2351 46.0597 12.6907C45.9064 12.6531 45.7531 12.6154 45.5802 12.5928C44.7504 12.4841 43.9085 12.6025 43.1627 12.9269C43.9731 14.1232 44.6669 15.6735 44.2986 17.2781C43.9701 18.7122 42.8677 19.7459 41.7955 20.4144C41.5458 20.5751 41.2985 20.7186 41.0556 20.8275C40.5263 21.1098 39.9497 21.3508 39.3234 21.5678L39.2934 21.5287C36.8745 18.381 37.4675 13.8517 40.6152 11.4328C42.1402 10.2609 44.0354 9.75296 45.937 10.0019C47.8363 10.2682 49.5196 11.2447 50.6915 12.7697Z" fill="#ABABF0"/>
</g>
<defs>
<filter id="filter0_d_147_364" x="0.929199" y="0.110229" width="123.803" height="111.052" filterUnits="userSpaceOnUse" color-interpolation-filters="sRGB">
<feFlood flood-opacity="0" result="BackgroundImageFix"/>
<feColorMatrix in="SourceAlpha" type="matrix" values="0 0 0 0 0 0 0 0 0 0 0 0 0 0 0 0 0 0 127 0" result="hardAlpha"/>
<feOffset dy="4"/>
<feGaussianBlur stdDeviation="2"/>
<feComposite in2="hardAlpha" operator="out"/>
<feColorMatrix type="matrix" values="0 0 0 0 0 0 0 0 0 0 0 0 0 0 0 0 0 0 0.5 0"/>
<feBlend mode="normal" in2="BackgroundImageFix" result="effect1_dropShadow_147_364"/>
<feBlend mode="normal" in="SourceGraphic" in2="effect1_dropShadow_147_364" result="shape"/>
</filter>
</defs>
</svg>
