<svg width="782" height="391" viewBox="0 0 782 391" fill="none" xmlns="http://www.w3.org/2000/svg">
<g filter="url(#filter0_i_136_148)">
<path d="M2.16313 255.646C39.6502 210.549 125.037 201.127 206.142 231.254C309.657 270.891 257.437 332.934 324.03 355.941C343.551 361.294 363.734 355.965 374.028 352.313C392.09 345.904 401.553 337.249 403.809 325.077C404.912 257.235 280.205 180.934 180.884 123.898C113.056 88.7549 127.24 12.8115 223.832 2.1664C366.938 -14.1087 419.239 64.5035 467.385 131.223C495.978 167.08 552.827 259.713 608.523 239.234C614.9 236.89 630.698 232.233 626.646 207.878C619.857 159.921 547.813 93.2066 568.898 45.9303C581.265 19.8914 635.591 6.68689 677.174 18.2486C736.883 35.6723 767.007 77.3196 780.975 110.532C787.194 131.951 733.549 138.053 724.914 117.003C717.141 92.6499 670.812 36.1537 632.089 48.8568C604.408 58.6881 639.594 110.655 650.633 131.409C664.967 156.29 679.788 182.018 683.574 204.771C688.278 231.529 676.5 255.023 636.133 267.914C520.534 299.567 470.393 216.493 414.692 143.948C376.169 96.3195 342.453 20.7281 234.086 34.3856C185.646 41.0528 185.031 81.619 220.533 100.3C335.505 164.07 570.546 313.637 404.151 380.152C318.161 408.17 239.987 380.908 224.393 309.403C219.506 286.706 202.502 269.508 173.855 258.284C119.263 238.721 74.2962 244.249 53.6722 269.87C46.4971 278.309 32.5448 281.499 18.5777 278.127C-6.08652 272.172 0.231965 257.939 2.16313 255.646Z" fill="url(#paint0_linear_136_148)" fill-opacity="0.1"/>
</g>
<defs>
<filter id="filter0_i_136_148" x="-0.000244141" y="0" width="781.476" height="394.989" filterUnits="userSpaceOnUse" color-interpolation-filters="sRGB">
<feFlood flood-opacity="0" result="BackgroundImageFix"/>
<feBlend mode="normal" in="SourceGraphic" in2="BackgroundImageFix" result="shape"/>
<feColorMatrix in="SourceAlpha" type="matrix" values="0 0 0 0 0 0 0 0 0 0 0 0 0 0 0 0 0 0 127 0" result="hardAlpha"/>
<feOffset dy="4"/>
<feGaussianBlur stdDeviation="2"/>
<feComposite in2="hardAlpha" operator="arithmetic" k2="-1" k3="1"/>
<feColorMatrix type="matrix" values="0 0 0 0 0.219859 0 0 0 0 0.557692 0 0 0 0 0.361043 0 0 0 0.2 0"/>
<feBlend mode="normal" in2="shape" result="effect1_innerShadow_136_148"/>
</filter>
<linearGradient id="paint0_linear_136_148" x1="733.468" y1="90.6647" x2="235.945" y2="523.255" gradientUnits="userSpaceOnUse">
<stop offset="0.210464" stop-color="#6A6AEB"/>
<stop offset="0.36" stop-color="#BCBDFA"/>
<stop offset="0.68" stop-color="#8AE8B1"/>
<stop offset="1" stop-color="#C0F5D6"/>
</linearGradient>
</defs>
</svg>
