<svg width="1440" height="293" viewBox="0 0 1440 293" fill="none" xmlns="http://www.w3.org/2000/svg">
<g clip-path="url(#clip0_91_255)">
<path d="M0 66.4302C0 66.4302 150.994 2.14348 247.267 125.57C336.547 240.02 534.053 219.607 562.32 216.03C566.888 215.441 571.522 215.129 576.168 215.097C602.179 214.95 666.043 221.597 642.24 293H0V66.4302Z" fill="#C0F5D6"/>
<path d="M1440 9.85644C1440 9.85644 1197.67 -43.2869 1138.42 97.2865C1079.17 237.86 758.261 152.143 758.261 152.143C758.261 152.143 629.899 107.896 558.307 178.02C486.715 248.143 269.486 210.43 269.486 210.43C269.486 210.43 101.621 199 180.619 293H1440V9.85644Z" fill="#6A6AEB"/>
<path d="M105.619 95.3569C128.873 95.3569 147.724 76.5051 147.724 53.2502C147.724 29.9954 128.873 11.1436 105.619 11.1436C82.3647 11.1436 63.5136 29.9954 63.5136 53.2502C63.5136 76.5051 82.3647 95.3569 105.619 95.3569Z" fill="#6A6AEB"/>
<path d="M1063.73 195.32C1086.99 195.32 1105.84 176.468 1105.84 153.213C1105.84 129.958 1086.99 111.106 1063.73 111.106C1040.48 111.106 1021.63 129.958 1021.63 153.213C1021.63 176.468 1040.48 195.32 1063.73 195.32Z" fill="#C0F5D6"/>
</g>
<defs>
<clipPath id="clip0_91_255">
<rect width="1440" height="1000" fill="white" transform="translate(0 -707)"/>
</clipPath>
</defs>
</svg>
