<svg id="icon" width="20" height="12" viewBox="0 0 20 12" fill="currentColor" xmlns="http://www.w3.org/2000/svg">
<path d="M14.6102 11.7436C14.4268 11.7436 14.2434 11.6738 14.1019 11.5323C13.8209 11.2512 13.8209 10.7968 14.1019 10.5177L18.4352 6.18446C18.5189 6.10075 18.5647 5.98911 18.5647 5.87151C18.5647 5.75391 18.5189 5.6423 18.4352 5.55859L14.1019 1.22533C13.8209 0.944282 13.8209 0.489834 14.1019 0.210783C14.3829 -0.070261 14.8374 -0.070261 15.1165 0.210783L19.4497 4.54404C19.8045 4.89884 19.9999 5.37121 19.9999 5.87151C19.9999 6.37181 19.8045 6.84421 19.4497 7.199L15.1165 11.5323C14.9769 11.6718 14.7936 11.7436 14.6082 11.7436H14.6102Z"/>
<path d="M19.2824 6.59087H0.717579C0.320928 6.59087 0 6.26997 0 5.87332C0 5.47667 0.320928 5.15576 0.717579 5.15576H19.2824C19.6791 5.15576 20 5.47667 20 5.87332C20 6.26997 19.6791 6.59087 19.2824 6.59087Z"/>
</svg>
