<svg id="icon" fill="currentColor" width="15" height="15" viewBox="0 0 15 15" xmlns="http://www.w3.org/2000/svg">
<path d="M2.98157 14.8212H0.800581C0.358968 14.8212 0 14.4622 0 14.0206V0.8006C0 0.358986 0.358968 0 0.800581 0H2.98157C3.42318 0 3.78215 0.358986 3.78215 0.8006V14.0206C3.78215 14.4622 3.42318 14.8212 2.98157 14.8212ZM0.975335 13.8445H2.80546V0.973999H0.975335V13.8445Z" />
<path d="M3.29446 11.7732H0.487651C0.218077 11.7732 0 11.5552 0 11.2856V3.5343C0 3.26473 0.218077 3.04663 0.487651 3.04663H3.29446C3.56404 3.04663 3.78215 3.26473 3.78215 3.5343V11.2856C3.78215 11.5552 3.56404 11.7732 3.29446 11.7732ZM0.975335 10.7979H2.80546V4.02197H0.975335V10.7979Z"/>
<path d="M5.78821 14.8212H3.60722C3.16561 14.8212 2.80664 14.4622 2.80664 14.0206V0.8006C2.80664 0.358986 3.16561 0 3.60722 0H5.78821C6.22982 0 6.58879 0.358986 6.58879 0.8006V14.0206C6.58879 14.4622 6.22982 14.8212 5.78821 14.8212ZM3.78198 13.8445H5.6121V0.973999H3.78198V13.8445Z" />
<path d="M6.1011 11.7732H3.29429C3.02472 11.7732 2.80664 11.5552 2.80664 11.2856V3.5343C2.80664 3.26473 3.02472 3.04663 3.29429 3.04663H6.1011C6.37068 3.04663 6.58879 3.26473 6.58879 3.5343V11.2856C6.58879 11.5552 6.37068 11.7732 6.1011 11.7732ZM3.78198 10.7979H5.6121V4.02197H3.78198V10.7979Z" />
<path d="M11.6989 15C11.3833 15 11.0839 14.813 10.958 14.5042L5.9187 2.28256C5.75072 1.87346 5.94579 1.40474 6.35353 1.23677L8.36922 0.405028C8.77697 0.237052 9.24706 0.432115 9.41503 0.839863L14.4543 13.0615C14.6223 13.4706 14.4272 13.9393 14.0195 14.1073L12.0037 14.939C11.9048 14.9796 11.8005 15 11.6989 15ZM6.88725 2.07259L11.7938 13.9718L13.4857 13.2742L8.5792 1.37494L6.8859 2.07259H6.88725Z" />
<path d="M10.3674 12.2785C10.1751 12.2785 9.99356 12.1647 9.91635 11.9764L6.96187 4.81035C6.9131 4.69114 6.9131 4.55567 6.96187 4.43647C7.01199 4.31726 7.10681 4.22244 7.22602 4.17232L9.82017 3.10214C10.0694 2.99919 10.3539 3.11841 10.4568 3.36766L13.4113 10.5337C13.4601 10.6529 13.4601 10.7884 13.4113 10.9076C13.3612 11.0268 13.2664 11.1217 13.1471 11.1718L10.553 12.2419C10.4921 12.2677 10.4297 12.2785 10.3674 12.2785ZM8.04965 4.88893L10.633 11.1528L12.3249 10.4552L9.74159 4.19128L8.04965 4.88893Z"/>
</svg>
