<svg id="icon" fill="currentColor" width="15" height="15" viewBox="0 0 15 15" xmlns="http://www.w3.org/2000/svg">
<path d="M12.8839 14.9998C12.584 14.9998 12.2901 14.8828 12.0682 14.6609L7.07177 9.66445C7.04328 9.63596 6.99529 9.63596 6.9668 9.66445L1.97037 14.6609C1.63898 14.9923 1.14564 15.0912 0.712276 14.9113C0.278912 14.7314 0 14.313 0 13.8452V2.42322C0 1.08714 1.08715 0 2.42323 0H11.6183C12.9544 0 14.0416 1.08714 14.0416 2.42322V13.8452C14.0416 14.313 13.7612 14.7329 13.3293 14.9113C13.1853 14.9713 13.0354 14.9998 12.8869 14.9998H12.8839ZM7.01929 8.56228C7.3147 8.56228 7.61011 8.67475 7.83504 8.89968L12.8315 13.8976C12.842 13.9081 12.8674 13.9321 12.9124 13.9141C12.9589 13.8946 12.9589 13.8602 12.9589 13.8452V2.42322C12.9589 1.68246 12.3561 1.08115 11.6168 1.08115H2.42173C1.68097 1.08115 1.07965 1.68396 1.07965 2.42322V13.8452C1.07965 13.8602 1.07965 13.8946 1.12614 13.9141C1.17112 13.9321 1.19662 13.9081 1.20712 13.8976L6.20355 8.90118C6.42848 8.67625 6.72388 8.56379 7.01929 8.56379V8.56228Z"/>
</svg>
