<svg id="icon" width="20" height="20" viewBox="0 0 20 20" fill="currentColor" xmlns="http://www.w3.org/2000/svg">
<path d="M0.738161 19.9999C0.543529 19.9999 0.355033 19.922 0.215717 19.7848C0.0702552 19.6393 -0.00760774 19.4385 0.0005873 19.2316L0.109178 16.5949C0.117373 16.4105 0.193187 16.2343 0.324307 16.1032L15.6879 0.739596C16.1653 0.262237 16.7984 0 17.4745 0C18.1506 0 18.7837 0.262237 19.261 0.739596C20.2465 1.72504 20.2465 3.32715 19.261 4.31055L3.89733 19.6721C3.76621 19.8032 3.59001 19.879 3.40563 19.8872L0.768873 19.9958C0.768873 19.9958 0.748405 19.9958 0.738161 19.9958V19.9999ZM1.572 16.9432L1.50847 18.49L3.0553 18.4264L18.2141 3.26775C18.6238 2.858 18.6238 2.19215 18.2141 1.78445C18.0153 1.58572 17.7531 1.47714 17.4724 1.47714C17.1918 1.47714 16.9295 1.58572 16.7308 1.78445L1.572 16.9432Z" />
<path d="M17.079 6.18719C16.8905 6.18719 16.702 6.1155 16.5566 5.97209L14.0284 3.44391C13.7395 3.15504 13.7395 2.68793 14.0284 2.4011C14.3173 2.11223 14.7844 2.11223 15.0712 2.4011L17.5994 4.92925C17.8883 5.21813 17.8883 5.68526 17.5994 5.97209C17.456 6.1155 17.2654 6.18719 17.077 6.18719H17.079Z" />
</svg>
