<svg id="icon" width="22" height="20" viewBox="0 0 22 20" fill="currentColor" xmlns="http://www.w3.org/2000/svg">
<path d="M19.6147 19.9981H15.2482C14.3127 19.9981 13.5523 19.2378 13.5523 18.3022V11.7833C13.5523 11.5894 13.3939 11.431 13.2001 11.431H8.11051C7.9167 11.431 7.75829 11.5894 7.75829 11.7833V18.3022C7.75829 19.2378 6.99793 19.9981 6.06239 19.9981H1.6959C0.760359 19.9981 0 19.2378 0 18.3022V9.49099C0 8.6039 0.387633 7.76713 1.06413 7.195L8.70315 0.717031C9.83065 -0.23901 11.4688 -0.23901 12.5981 0.717031L20.2427 7.195C20.9192 7.769 21.3069 8.60577 21.3069 9.49286V18.3041C21.3069 19.2396 20.5465 20 19.611 20L19.6147 19.9981ZM8.11238 10.0892H13.202C14.1375 10.0892 14.8979 10.8496 14.8979 11.7851V18.3041C14.8979 18.4979 15.0563 18.6563 15.2501 18.6563H19.6166C19.8104 18.6563 19.9688 18.4979 19.9688 18.3041V9.49286C19.9688 9.00086 19.7545 8.53681 19.378 8.21999L11.7334 1.74203C11.1091 1.21276 10.2015 1.21276 9.57533 1.74203L1.93631 8.21999C1.56172 8.53681 1.3474 9.00086 1.3474 9.49286V18.3041C1.3474 18.4979 1.50581 18.6563 1.69963 18.6563H6.06611C6.25993 18.6563 6.41834 18.4979 6.41834 18.3041V11.7851C6.41834 10.8496 7.1787 10.0892 8.11424 10.0892H8.11238Z"/>
</svg>
