<svg id="icon" width="20" height="20" viewBox="0 0 20 20" fill="currentColor" xmlns="http://www.w3.org/2000/svg">
<path d="M9.99998 20C4.48493 20 0 15.5131 0 10C0 4.4869 4.48687 0 9.99998 0C15.5131 0 20 4.4869 20 10C20 15.5131 15.5131 20 9.99998 20ZM9.99998 1.39669C5.257 1.39669 1.39669 5.25509 1.39669 10C1.39669 14.7449 5.25506 18.6033 9.99998 18.6033C14.7449 18.6033 18.6033 14.7449 18.6033 10C18.6033 5.25509 14.7449 1.39669 9.99998 1.39669Z"/>
<path d="M9.99996 14.7739C9.61393 14.7739 9.30164 14.4616 9.30164 14.0756V8.83214C9.30164 8.4461 9.61393 8.13379 9.99996 8.13379C10.386 8.13379 10.6983 8.4461 10.6983 8.83214V14.0756C10.6983 14.4616 10.386 14.7739 9.99996 14.7739Z" />
<path d="M9.99995 6.62278C9.95339 6.62278 9.90878 6.61695 9.86223 6.60725C9.81761 6.59949 9.77495 6.58592 9.73227 6.56846C9.68959 6.551 9.64883 6.52965 9.61197 6.50443C9.57318 6.47727 9.5383 6.44818 9.50532 6.41714C9.47234 6.38417 9.44321 6.34924 9.41799 6.31044C9.39277 6.27358 9.37146 6.23285 9.354 6.19017C9.33655 6.14749 9.32297 6.10289 9.31327 6.05827C9.30552 6.01366 9.29968 5.96903 9.29968 5.92247C9.29968 5.87591 9.30552 5.8313 9.31327 5.78669C9.32297 5.74207 9.33655 5.69744 9.354 5.65477C9.37146 5.61403 9.39277 5.57329 9.41799 5.5345C9.44321 5.4957 9.47234 5.46079 9.50532 5.42782C9.63529 5.29785 9.81566 5.22412 9.99995 5.22412C10.1842 5.22412 10.3627 5.29785 10.4927 5.42782C10.6227 5.55973 10.6983 5.73818 10.6983 5.92247C10.6983 5.96903 10.6925 6.01366 10.6847 6.05827C10.675 6.10289 10.6615 6.14749 10.644 6.19017C10.6265 6.23285 10.6052 6.27358 10.58 6.31044C10.5547 6.34924 10.5257 6.38417 10.4927 6.41714C10.4616 6.44818 10.4248 6.47727 10.3879 6.50443C10.3491 6.52965 10.3084 6.551 10.2657 6.56846C10.225 6.58592 10.1804 6.59949 10.1358 6.60725C10.0912 6.61695 10.0446 6.62278 9.99995 6.62278Z" />
</svg>
