<svg id="icon" width="21" height="20" viewBox="0 0 21 20" fill="currentColor" xmlns="http://www.w3.org/2000/svg">
<path d="M16.1788 14.483C15.9976 14.483 15.8164 14.4141 15.6766 14.2762C15.3988 13.9985 15.3988 13.5494 15.6766 13.2736L18.8477 10.1025C18.9029 10.0473 18.9029 9.95869 18.8477 9.90551L15.6766 6.73434C15.3988 6.45662 15.3988 6.00754 15.6766 5.73179C15.9543 5.45604 16.4034 5.45407 16.6791 5.73179L19.8503 8.90295C20.4569 9.51157 20.4569 10.5003 19.8503 11.107L16.6772 14.2782C16.5393 14.416 16.3581 14.485 16.1749 14.485L16.1788 14.483Z" />
<path d="M19.6002 10.7091H6.00951C5.61755 10.7091 5.30042 10.392 5.30042 10.0001C5.30042 9.60809 5.61755 9.29098 6.00951 9.29098H19.6002C19.9922 9.29098 20.3093 9.60809 20.3093 10.0001C20.3093 10.392 19.9922 10.7091 19.6002 10.7091Z" />
<path d="M6.57867 20H4.32144C1.93814 20 0 18.0579 0 15.6726V4.32736C0 1.9421 1.93814 0 4.32144 0H6.57867C8.96196 0 10.9001 1.9421 10.9001 4.32736V6.03506C10.9001 6.42702 10.583 6.74414 10.1911 6.74414C9.79909 6.74414 9.48195 6.42702 9.48195 6.03506V4.32736C9.48195 2.72405 8.18001 1.41816 6.58064 1.41816H4.32341C2.72404 1.41816 1.42209 2.72209 1.42209 4.32736V15.6726C1.42209 17.2759 2.72404 18.5818 4.32341 18.5818H6.58064C8.18001 18.5818 9.48195 17.2779 9.48195 15.6726V13.9649C9.48195 13.573 9.79909 13.2559 10.1911 13.2559C10.583 13.2559 10.9001 13.573 10.9001 13.9649V15.6726C10.9001 18.0579 8.96196 20 6.57867 20Z" />
</svg>
