<svg id="icon" width="22" height="20" viewBox="0 0 22 20" fill="currentColor" xmlns="http://www.w3.org/2000/svg">
    <path d="M9.13848 18.277C8.82093 18.277 8.54256 18.0653 8.45827 17.7595L6.73919 11.5378L0.517498 9.81867C0.211705 9.73438 0 9.45604 0 9.13848C0 8.82093 0.211705 8.54259 0.517498 8.4583L6.73919 6.73918L8.45827 0.517486C8.54256 0.211693 8.82093 0 9.13848 0C9.45604 0 9.73438 0.211693 9.81867 0.517486L11.5378 6.73918L17.7595 8.4583C18.0653 8.54259 18.277 8.82093 18.277 9.13848C18.277 9.45604 18.0653 9.73438 17.7595 9.81867L11.5378 11.5378L9.81867 17.7595C9.73438 18.0653 9.45604 18.277 9.13848 18.277ZM3.35784 9.14045L7.50169 10.2852C7.74084 10.3518 7.92902 10.5381 7.99371 10.7772L9.13848 14.9211L10.2832 10.7772C10.3499 10.5381 10.5361 10.3499 10.7753 10.2852L14.9191 9.14045L10.7753 7.99567C10.5361 7.92902 10.3479 7.74282 10.2832 7.50368L9.13848 3.35979L7.99371 7.50368C7.92706 7.74282 7.74084 7.93098 7.50169 7.99567L3.35784 9.14045Z"/>
    <path d="M17.5713 19.9999C17.2538 19.9999 16.9754 19.7882 16.8911 19.4824L16.3344 17.4634L14.3154 16.9067C14.0096 16.8224 13.7979 16.5441 13.7979 16.2265C13.7979 15.909 14.0096 15.6306 14.3154 15.5463L16.3344 14.9896L16.8911 12.9706C16.9754 12.6648 17.2538 12.4531 17.5713 12.4531C17.8889 12.4531 18.1672 12.6648 18.2515 12.9706L18.8082 14.9896L20.8272 15.5463C21.133 15.6306 21.3447 15.909 21.3447 16.2265C21.3447 16.5441 21.133 16.8224 20.8272 16.9067L18.8082 17.4634L18.2515 19.4824C18.1672 19.7882 17.8889 19.9999 17.5713 19.9999ZM17.1459 16.2246C17.3439 16.2951 17.4988 16.4519 17.5713 16.6499C17.6419 16.4519 17.7987 16.2971 17.9967 16.2246C17.7987 16.154 17.6438 15.9972 17.5713 15.7992C17.5007 15.9972 17.3439 16.152 17.1459 16.2246Z"/>
    <path d="M17.5713 4.48298C17.2537 4.48298 16.9753 4.27127 16.8911 3.96548L16.6656 3.15003L15.8502 2.92461C15.5444 2.84032 15.3327 2.56197 15.3327 2.24441C15.3327 1.92686 15.5444 1.64852 15.8502 1.56423L16.6656 1.3388L16.8911 0.523357C16.9753 0.217565 17.2537 0.00585938 17.5713 0.00585938C17.8888 0.00585938 18.1672 0.217565 18.2515 0.523357L18.4769 1.3388L19.2923 1.56423C19.5981 1.64852 19.8098 1.92686 19.8098 2.24441C19.8098 2.56197 19.5981 2.84032 19.2923 2.92461L18.4769 3.15003L18.2515 3.96548C18.1672 4.27127 17.8888 4.48298 17.5713 4.48298Z"/>
</svg>
