<svg id="icon" width="26" height="20" viewBox="0 0 26 20" fill="currentColor" xmlns="http://www.w3.org/2000/svg">
<path d="M23.8264 20H1.87386C0.840626 20 0 19.1593 0 18.1261V1.8739C0 0.840664 0.840626 0 1.87386 0H23.8264C24.8597 0 25.7003 0.840664 25.7003 1.8739V18.1261C25.7003 19.1593 24.8597 20 23.8264 20ZM1.87179 1.49084C1.66058 1.49084 1.49083 1.66271 1.49083 1.87184V18.124C1.49083 18.3352 1.66265 18.505 1.87179 18.505H23.8244C24.0356 18.505 24.2054 18.3332 24.2054 18.124V1.87184C24.2054 1.66063 24.0335 1.49084 23.8244 1.49084H1.87179Z" />
<path d="M12.8498 11.084C12.0712 11.084 11.2927 10.8086 10.6591 10.2599L1.09286 2.01471C0.780195 1.74553 0.745019 1.2755 1.0142 0.962834C1.28338 0.650172 1.75549 0.614971 2.06608 0.884149L11.6323 9.13138C12.3342 9.74014 13.3529 9.7422 14.0569 9.13759L23.6377 0.892427C23.9503 0.623248 24.4204 0.65845 24.6895 0.971111C24.9587 1.28377 24.9235 1.7538 24.6108 2.02298L15.0301 10.2702C14.3965 10.8148 13.6221 11.086 12.8477 11.086L12.8498 11.084Z" />
</svg>
