<svg id="icon" width="18" height="18" viewBox="0 0 18 18" fill="currentColor" xmlns="http://www.w3.org/2000/svg">
<path d="M10.4609 18H2.59717C1.1652 18 0 16.8348 0 15.4029V2.59071C0 1.16196 1.1652 0 2.59717 0H11.5554C11.8752 0 12.1339 0.258746 12.1339 0.578568C12.1339 0.898389 11.8752 1.15714 11.5554 1.15714H2.59717C1.80324 1.15714 1.15878 1.8 1.15878 2.59071V15.4029C1.15878 16.1968 1.80485 16.8412 2.59717 16.8412H10.4609C10.8723 16.8412 11.2613 16.7529 11.6164 16.5793C11.6229 16.5761 11.6277 16.5729 11.6341 16.5712C11.9154 16.4459 12.1741 16.2659 12.4056 16.0345L16.0409 12.4039C16.2643 12.1805 16.4524 11.9105 16.5857 11.6212C16.7577 11.2596 16.8477 10.8595 16.8477 10.4593V6.44464C16.8477 6.12482 17.1065 5.86607 17.4263 5.86607C17.7461 5.86607 18.0048 6.12482 18.0048 6.44464V10.4593C18.0048 11.0298 17.8763 11.602 17.6336 12.1114C17.444 12.5229 17.182 12.8989 16.8573 13.222L13.222 16.8525C12.8925 17.182 12.5197 17.4407 12.1131 17.6239C11.6004 17.873 11.0443 17.9984 10.4593 17.9984L10.4609 18Z"/>
<path d="M11.8706 17.6801C11.7597 17.6801 11.6504 17.6479 11.5556 17.5869C11.3917 17.4808 11.292 17.2976 11.292 17.1015V11.8654C11.292 11.5456 11.5508 11.2869 11.8706 11.2869H17.1131C17.3107 11.2869 17.494 11.3881 17.6 11.5536C17.7061 11.7208 17.7206 11.9297 17.6386 12.1081C17.4457 12.526 17.1838 12.902 16.8608 13.2251L13.2254 16.8556C12.8943 17.1867 12.5183 17.4486 12.1068 17.6319C12.0313 17.6656 11.9509 17.6817 11.8706 17.6817V17.6801ZM12.4492 12.444V15.9926L16.0025 12.444H12.4492Z"/>
<path d="M5.22793 12.9727C5.07526 12.9727 4.92739 12.9117 4.81811 12.804C4.704 12.6899 4.64296 12.5324 4.64939 12.3701L4.73457 10.3017C4.741 10.157 4.80043 10.0188 4.90329 9.91595L13.2894 1.52988C13.6639 1.15542 14.1605 0.949707 14.6892 0.949707C15.218 0.949707 15.7162 1.15542 16.089 1.52988C16.4635 1.90435 16.6692 2.40096 16.6692 2.93132C16.6692 3.46167 16.4635 3.95828 16.089 4.33274L7.70296 12.7188C7.6001 12.8217 7.46186 12.8811 7.31722 12.8876L5.24885 12.9727C5.24885 12.9727 5.23275 12.9727 5.22472 12.9727H5.22793ZM5.88205 10.5749L5.83222 11.7883L7.04562 11.7385L15.271 3.5131C15.4269 3.35721 15.512 3.1515 15.512 2.93132C15.512 2.71114 15.4269 2.50542 15.271 2.34953C15.1151 2.19364 14.9094 2.10846 14.6892 2.10846C14.469 2.10846 14.2633 2.19364 14.1074 2.34953L5.88205 10.5749Z"/>
</svg>
