<svg id="icon" width="20" height="16" viewBox="0 0 20 16" fill="currentColor" xmlns="http://www.w3.org/2000/svg">
<path d="M5.27847 15.3662C5.01591 15.3662 4.75148 15.321 4.49616 15.2322C3.90041 15.024 3.42057 14.5966 3.14896 14.0262L0.425549 8.39839C0.148501 7.86059 0 7.23222 0 6.59845C0 5.50836 0.423735 4.49074 1.1915 3.7284C1.95565 2.96426 2.97517 2.54053 4.0562 2.54053H13.7347C14.0951 2.54053 14.3866 2.83208 14.3866 3.19242V10.0009C14.3866 10.3612 14.0951 10.6528 13.7347 10.6528H6.77598L7.40975 11.9583C7.6868 12.5306 7.72479 13.1752 7.51656 13.7746C7.30832 14.3703 6.88095 14.8501 6.31055 15.1218C5.98462 15.2811 5.63334 15.3608 5.28024 15.3608L5.27847 15.3662ZM4.05434 3.8479C3.32098 3.8479 2.63112 4.13399 2.10962 4.6555C1.58812 5.17157 1.30202 5.86147 1.30202 6.60026C1.30202 7.0276 1.40154 7.44951 1.59167 7.81891L4.32233 13.4613C4.44546 13.7166 4.65915 13.9086 4.92533 14.0009C5.19514 14.0951 5.48491 14.077 5.74204 13.952C5.99917 13.8289 6.18925 13.6152 6.28341 13.349C6.37757 13.0792 6.35946 12.7895 6.23452 12.5323L5.14629 10.2888C5.0485 10.086 5.06117 9.84881 5.18068 9.65868C5.30019 9.46855 5.50839 9.35267 5.73293 9.35267H13.0811V3.8479H4.0562H4.05434Z" />
<path d="M13.729 13.2024C13.3687 13.2024 13.0771 12.9108 13.0771 12.5505V0.651895C13.0771 0.291552 13.3687 0 13.729 0C14.0894 0 14.3809 0.291552 14.3809 0.651895V12.5505C14.3809 12.9108 14.0894 13.2024 13.729 13.2024Z" />
<path d="M19.348 7.25223H16.6319C16.2715 7.25223 15.98 6.96068 15.98 6.60034C15.98 6.23999 16.2715 5.94849 16.6319 5.94849H19.348C19.7084 5.94849 19.9999 6.23999 19.9999 6.60034C19.9999 6.96068 19.7084 7.25223 19.348 7.25223Z" />
<path d="M16.6336 4.5941C16.4218 4.5941 16.2153 4.49268 16.0904 4.30254C15.8912 4.00196 15.9727 3.59816 16.2732 3.39897L18.1927 2.12237C18.4933 1.92319 18.8971 2.00467 19.0963 2.30526C19.2955 2.60585 19.214 3.00965 18.9134 3.20883L16.9939 4.48543C16.8835 4.55968 16.7568 4.5941 16.6336 4.5941Z" />
<path d="M18.5531 11.1868C18.4281 11.1868 18.3031 11.1505 18.1927 11.0781L16.2732 9.80154C15.9727 9.60236 15.8912 9.19674 16.0904 8.89797C16.2896 8.59738 16.6952 8.5177 16.9939 8.71508L18.9134 9.99164C19.214 10.1908 19.2955 10.5964 19.0963 10.8952C18.9714 11.0835 18.7631 11.1868 18.5531 11.1868Z" />
<path d="M5.73313 10.6565H1.8726C1.51225 10.6565 1.2207 10.365 1.2207 10.0046C1.2207 9.64429 1.51225 9.35278 1.8726 9.35278H5.73313C6.09347 9.35278 6.38503 9.64429 6.38503 10.0046C6.38503 10.365 6.09347 10.6565 5.73313 10.6565Z" />
</svg>
