<svg xmlns="http://www.w3.org/2000/svg">
  <symbol id="icon" viewBox="0 0 20 20" fill="currentColor">
    <path d="M8.18899 16.378C3.67294 16.378 0 12.705 0 8.18898C0 3.67294 3.67294 0 8.18899 0C12.705 0 16.378 3.67294 16.378 8.18898C16.378 12.705 12.705 16.378 8.18899 16.378ZM8.18899 1.45425C4.4757 1.45425 1.45424 4.4757 1.45424 8.18898C1.45424 11.9023 4.4757 14.9237 8.18899 14.9237C11.9023 14.9237 14.9237 11.9023 14.9237 8.18898C14.9237 4.4757 11.9023 1.45425 8.18899 1.45425Z"/>
    <path d="M19.2744 20.0006C19.0888 20.0006 18.9032 19.93 18.76 19.7888L12.9511 13.9798C12.6667 13.6954 12.6667 13.2356 12.9511 12.9532C13.2355 12.6688 13.6954 12.6688 13.9777 12.9532L19.7867 18.7621C20.0711 19.0465 20.0711 19.5064 19.7867 19.7888C19.6455 19.93 19.4579 20.0006 19.2723 20.0006H19.2744Z"/>
  </symbol>
</svg>