<svg id="icon" width="20" height="19" viewBox="0 0 20 19" fill="currentColor" xmlns="http://www.w3.org/2000/svg">
<path d="M10.002 0.5C10.0487 0.500035 10.0943 0.512963 10.1338 0.537109C10.1534 0.549104 10.1712 0.563544 10.1865 0.580078L10.2256 0.635742L12.5586 5.33398V5.33301C12.7022 5.62661 12.9158 5.88042 13.1807 6.07227C13.4463 6.26456 13.7561 6.38937 14.0811 6.43457V6.43359L19.2861 7.1875C19.3328 7.19476 19.3766 7.21499 19.4121 7.24512C19.4475 7.2752 19.4741 7.314 19.4883 7.35742C19.5025 7.40092 19.5039 7.44777 19.4932 7.49219C19.4829 7.53457 19.4612 7.57357 19.4307 7.60547L15.6562 11.2666L15.6553 11.2676C15.4214 11.495 15.2464 11.7758 15.1455 12.0859C15.0448 12.3956 15.0208 12.7251 15.0762 13.0459V13.0469L15.9648 18.2119V18.2129C15.9722 18.2576 15.9666 18.3036 15.9492 18.3457C15.9318 18.3878 15.9028 18.4249 15.8652 18.4521C15.8277 18.4792 15.783 18.4955 15.7363 18.499C15.6895 18.5026 15.643 18.4929 15.6016 18.4717L15.5684 18.4551C15.5633 18.4525 15.5578 18.4495 15.5518 18.4463C15.5175 18.4284 15.4671 18.4025 15.4033 18.3691C15.2756 18.3023 15.0936 18.2062 14.875 18.0918C14.4376 17.8629 13.8544 17.5579 13.2715 17.2529C12.6887 16.948 12.1055 16.6436 11.668 16.415C11.4493 16.3008 11.2668 16.2054 11.1387 16.1387C11.0747 16.1054 11.0233 16.0786 10.9883 16.0605C10.9712 16.0517 10.9574 16.0442 10.9473 16.0391L10.9199 16.0254C10.9178 16.0244 10.9105 16.0214 10.9014 16.0176C10.898 16.0162 10.8911 16.0135 10.8838 16.0107C10.6081 15.8774 10.3068 15.8057 10 15.8057C9.75563 15.8057 9.51369 15.8492 9.28613 15.9346L9.06348 16.0342H9.0625L4.40234 18.4717C4.36097 18.4929 4.31426 18.5025 4.26758 18.499C4.22075 18.4955 4.17531 18.4794 4.1377 18.4521C4.10016 18.425 4.0711 18.3878 4.05371 18.3457C4.0364 18.3037 4.03172 18.2576 4.03906 18.2129L4.03809 18.2119L4.92676 13.0479C4.98257 12.7264 4.95931 12.3962 4.8584 12.0859C4.78265 11.8531 4.66461 11.6369 4.51172 11.4473L4.34766 11.2676V11.2666L0.573242 7.60547H0.572266C0.540156 7.57349 0.517521 7.53359 0.506836 7.49023C0.495981 7.44613 0.497618 7.39968 0.511719 7.35645C0.52587 7.31315 0.552429 7.27396 0.587891 7.24414C0.623259 7.21446 0.666604 7.19535 0.712891 7.18848L0.711914 7.1875L5.92188 6.43359L5.92285 6.43457C6.2478 6.38937 6.5566 6.26456 6.82227 6.07227C7.08788 5.87997 7.30257 5.62562 7.44629 5.33105L7.44531 5.33008L9.77832 0.635742C9.79896 0.595433 9.83078 0.56117 9.87012 0.537109C9.90959 0.513037 9.95528 0.500001 10.002 0.5ZM15.5928 18.4678L15.6006 18.4717H15.5996C15.5978 18.4707 15.595 18.469 15.5908 18.4668H15.5918L15.5928 18.4678Z" stroke="#9E8A3A"/>
</svg>
