<svg id="icon" width="20" height="20" viewBox="0 0 20 20" fill="currentColor" xmlns="http://www.w3.org/2000/svg">
<path d="M16.9901 5.15808C16.9896 4.76729 16.8342 4.39263 16.5579 4.1163C16.2815 3.83997 15.9069 3.68453 15.5161 3.68408H13.3408V2.63748C13.3408 2.27 13.195 1.91754 12.9354 1.65742C12.6759 1.39731 12.3237 1.25078 11.9562 1.25H8.04386C7.67641 1.25081 7.32429 1.39735 7.06474 1.65747C6.8052 1.91758 6.65944 2.27003 6.65944 2.63748V3.68408H4.48399C4.11677 3.6838 3.76268 3.82072 3.49117 4.06797C3.21967 4.31523 3.05032 4.655 3.01633 5.02064C2.98235 5.38629 3.08619 5.75145 3.30748 6.0445C3.52877 6.33756 3.85156 6.53738 4.21254 6.60478V16.6469C4.21317 17.2045 4.43495 17.739 4.82923 18.1333C5.2235 18.5276 5.75808 18.7494 6.31567 18.75H13.6844C14.242 18.7494 14.7765 18.5276 15.1708 18.1333C15.565 17.739 15.7868 17.2044 15.7874 16.6469V6.60481C16.1249 6.54143 16.4298 6.36223 16.6494 6.09812C16.8689 5.834 16.9894 5.50154 16.9901 5.15808ZM7.28444 2.63748C7.28427 2.43574 7.36414 2.24217 7.5065 2.09923C7.64887 1.95629 7.84212 1.87565 8.04386 1.875H11.9562C12.158 1.87565 12.3512 1.95628 12.4936 2.09921C12.636 2.24215 12.7159 2.43572 12.7158 2.63748V3.68408H7.28444V2.63748ZM13.6844 18.125H6.31567C5.92379 18.1245 5.54809 17.9687 5.27099 17.6916C4.99389 17.4145 4.83801 17.0388 4.83754 16.6469V6.63223H15.1624V16.6469C15.1619 17.0387 15.0061 17.4144 14.729 17.6915C14.4519 17.9686 14.0763 18.1245 13.6844 18.125ZM15.5161 6.00723C15.4838 6.01007 4.56104 6.00519 4.52049 6.00723C4.40755 6.01202 4.29479 5.99422 4.18881 5.95487C4.08284 5.91551 3.98578 5.85541 3.90334 5.77806C3.82089 5.70072 3.75471 5.6077 3.70868 5.50446C3.66264 5.40121 3.63768 5.28981 3.63525 5.1768C3.63282 5.06378 3.65297 4.95141 3.69452 4.84628C3.73608 4.74115 3.7982 4.64537 3.87724 4.56456C3.95629 4.48374 4.05067 4.41952 4.15485 4.37565C4.25904 4.33178 4.37093 4.30915 4.48398 4.30907H15.5161C15.7396 4.31158 15.9532 4.40213 16.1104 4.5611C16.2676 4.72006 16.3557 4.9346 16.3557 5.15816C16.3557 5.38171 16.2676 5.59625 16.1104 5.75521C15.9532 5.91417 15.7396 6.00473 15.5161 6.00723Z" />
<path d="M7.20801 8.34241C7.12513 8.34241 7.04564 8.37533 6.98704 8.43394C6.92843 8.49254 6.89551 8.57203 6.89551 8.65491V15.7676C6.89551 15.8505 6.92843 15.93 6.98704 15.9886C7.04564 16.0472 7.12513 16.0801 7.20801 16.0801C7.29089 16.0801 7.37037 16.0472 7.42898 15.9886C7.48758 15.93 7.52051 15.8505 7.52051 15.7676V8.65491C7.52051 8.57203 7.48758 8.49254 7.42898 8.43394C7.37037 8.37533 7.29089 8.34241 7.20801 8.34241Z" />
<path d="M10 8.34241C9.91712 8.34241 9.83763 8.37533 9.77903 8.43394C9.72042 8.49254 9.6875 8.57203 9.6875 8.65491V15.7676C9.6875 15.8505 9.72042 15.93 9.77903 15.9886C9.83763 16.0472 9.91712 16.0801 10 16.0801C10.0829 16.0801 10.1624 16.0472 10.221 15.9886C10.2796 15.93 10.3125 15.8505 10.3125 15.7676V8.65491C10.3125 8.57203 10.2796 8.49254 10.221 8.43394C10.1624 8.37533 10.0829 8.34241 10 8.34241Z" />
<path d="M12.792 8.34241C12.751 8.3424 12.7103 8.35047 12.6724 8.36617C12.6345 8.38187 12.6 8.40489 12.571 8.43391C12.542 8.46293 12.519 8.49739 12.5033 8.53531C12.4876 8.57322 12.4795 8.61387 12.4795 8.65491V15.7676C12.4795 15.8505 12.5124 15.93 12.571 15.9886C12.6296 16.0472 12.7091 16.0801 12.792 16.0801C12.8749 16.0801 12.9544 16.0472 13.013 15.9886C13.0716 15.93 13.1045 15.8505 13.1045 15.7676V8.65491C13.1045 8.61387 13.0964 8.57322 13.0807 8.53531C13.065 8.49739 13.042 8.46293 13.013 8.43391C12.984 8.40489 12.9495 8.38187 12.9116 8.36617C12.8737 8.35047 12.833 8.3424 12.792 8.34241Z" />
</svg>
