<svg id="icon" fill="currentColor" width="17" height="15" viewBox="0 0 17 15" xmlns="http://www.w3.org/2000/svg">
<path d="M15.3395 5.69524H0.797469C0.432635 5.69524 0.123605 5.45855 0.0286273 5.10578C-0.06635 4.75301 0.0798745 4.3927 0.394958 4.20877L7.17754 0.240835C7.7278 -0.0802784 8.41075 -0.0802784 8.9595 0.240835L15.7421 4.20877C16.0572 4.3927 16.2049 4.75301 16.1084 5.10578C16.0119 5.45855 15.7044 5.69524 15.338 5.69524H15.3395ZM1.86334 4.60979H14.2752L8.41223 1.18006C8.20117 1.05644 7.93885 1.05644 7.72779 1.18006L1.86484 4.60979H1.86334Z" />
<path d="M13.7945 12.6783H2.34446C2.04446 12.6783 1.80176 12.4356 1.80176 12.1356C1.80176 11.8356 2.04446 11.5929 2.34446 11.5929H13.7945C14.0945 11.5929 14.3372 11.8356 14.3372 12.1356C14.3372 12.4356 14.0945 12.6783 13.7945 12.6783Z" />
<path d="M14.702 15H1.43528C1.13528 15 0.892578 14.7573 0.892578 14.4573C0.892578 14.1573 1.13528 13.9146 1.43528 13.9146H14.702C15.002 13.9146 15.2447 14.1573 15.2447 14.4573C15.2447 14.7573 15.002 15 14.702 15Z" />
<path d="M3.19167 12.6783C2.89166 12.6783 2.64893 12.4356 2.64893 12.1356V5.15253C2.64893 4.85252 2.89166 4.6098 3.19167 4.6098C3.49168 4.6098 3.73437 4.85252 3.73437 5.15253V12.1356C3.73437 12.4356 3.49168 12.6783 3.19167 12.6783Z" />
<path d="M6.44358 12.6783C6.14358 12.6783 5.90088 12.4356 5.90088 12.1356V5.15253C5.90088 4.85252 6.14358 4.6098 6.44358 4.6098C6.74359 4.6098 6.98633 4.85252 6.98633 5.15253V12.1356C6.98633 12.4356 6.74359 12.6783 6.44358 12.6783Z" />
<path d="M9.69505 12.6783C9.39504 12.6783 9.15234 12.4356 9.15234 12.1356V5.15253C9.15234 4.85252 9.39504 4.6098 9.69505 4.6098C9.99506 4.6098 10.2378 4.85252 10.2378 5.15253V12.1356C10.2378 12.4356 9.99506 12.6783 9.69505 12.6783Z" />
<path d="M12.947 12.6783C12.647 12.6783 12.4043 12.4356 12.4043 12.1356V5.15253C12.4043 4.85252 12.647 4.6098 12.947 4.6098C13.247 4.6098 13.4897 4.85252 13.4897 5.15253V12.1356C13.4897 12.4356 13.247 12.6783 12.947 12.6783Z" />
</svg>
