<svg id="icon" fill="currentColor" width="12" height="15" viewBox="0 0 12 15" xmlns="http://www.w3.org/2000/svg">
<path d="M9.85271 15H1.42089C0.989528 15 0.587493 14.8074 0.31667 14.4709C0.0416581 14.1289 -0.0602524 13.6864 0.0346754 13.255C0.609827 10.6501 2.96486 8.75989 5.6368 8.75989C8.30874 8.75989 10.6638 10.6501 11.239 13.255C11.3339 13.6864 11.2306 14.1289 10.957 14.4709C10.6875 14.8074 10.2841 15 9.85271 15ZM5.6368 9.76501C3.43391 9.76501 1.49067 11.3243 1.01743 13.4714C0.988113 13.6026 1.01884 13.7366 1.1012 13.8399C1.14727 13.8972 1.24918 13.9935 1.42089 13.9935H9.85271C10.0244 13.9935 10.1263 13.8972 10.1724 13.8399C10.2548 13.7366 10.2855 13.6026 10.2562 13.4714C9.78293 11.3243 7.83968 9.76501 5.6368 9.76501Z" />
<path d="M5.63672 7.396C3.59716 7.396 1.93872 5.73756 1.93872 3.698C1.93872 1.65845 3.59716 0 5.63672 0C7.67627 0 9.33471 1.65845 9.33471 3.698C9.33471 5.73756 7.67627 7.396 5.63672 7.396ZM5.63672 1.00512C4.15277 1.00512 2.94383 2.21266 2.94383 3.698C2.94383 5.18334 4.15138 6.39089 5.63672 6.39089C7.12206 6.39089 8.32957 5.18334 8.32957 3.698C8.32957 2.21266 7.12206 1.00512 5.63672 1.00512Z" />
</svg>
