<svg width="381" height="220" viewBox="0 0 381 220" fill="none" xmlns="http://www.w3.org/2000/svg">
<g clip-path="url(#clip0_20_36)">
<path d="M348.583 107.133C327.498 127.739 295.549 136.416 265.104 139.606C246.037 141.604 226.853 141.772 207.719 142.464C205.43 142.541 203.141 142.631 200.854 142.732C198.289 142.845 197.376 143.048 195.641 144.687C192.496 147.621 189.328 150.534 186.136 153.424C179.746 159.209 173.261 164.913 166.679 170.534C151.57 183.441 135.97 195.893 119.88 207.89L123.903 210.147C127.951 188.838 132.003 167.529 136.059 146.219C136.297 144.941 135.091 143.22 133.331 143.556C110.411 147.922 88.1058 156.348 64.4098 156.174C54.8824 156.105 45.1878 154.631 36.7372 150.871C27.6893 146.842 21.082 140.138 17.2657 132.027C13.2693 123.534 11.9937 114.267 11.1309 105.141C10.2597 95.8999 9.52039 86.5487 10.3023 77.2516C11.0636 68.1519 13.424 58.98 18.9833 51.0203C23.8511 44.0507 31.1448 38.5713 39.3756 34.731C56.5868 26.7696 77.0182 25.3144 96.0131 24.7183C121.842 23.9117 147.698 23.7009 173.505 23.2176L253.038 21.7077C265.449 21.4696 277.867 21.1051 290.274 21.0531C300.517 21.0143 310.798 21.3344 320.838 22.9885C339.74 26.1223 356.627 35.0462 363.003 51.309C368.881 66.2768 365.527 83.5354 356.547 97.3535C354.273 100.833 351.597 104.111 348.56 107.135C346.331 109.363 350.256 112.271 352.485 110.047C365.253 97.277 372.198 80.066 370.998 63.4082C369.776 46.3701 359.234 31.6142 341.487 24.0095C322.432 15.8475 299.827 16.3118 278.852 16.7118L194.098 18.3188L109.914 19.9141C88.9383 20.3092 67.1766 20.5709 47.058 26.9218C37.9333 29.7926 29.4053 34.0364 22.4967 39.9901C14.9078 46.5314 9.99103 54.9011 7.43377 63.776C4.70812 73.221 4.48739 83.0849 4.94826 92.6976C5.40913 102.31 6.14221 112.134 8.31889 121.591C10.4706 130.949 14.4489 139.992 22.0527 147C28.606 153.05 37.4058 156.876 46.7007 158.866C69.0726 163.654 91.7528 158.1 113.457 152.682C120.155 151.01 126.86 149.357 133.661 148.058L130.935 145.41C126.862 166.711 122.81 188.015 118.778 209.322C118.446 211.075 120.936 212.972 122.8 211.579C150.158 191.178 176.168 169.463 200.702 146.541L198.905 147.336C241.993 145.333 287.581 147.18 326.751 127.964C336.416 123.266 345.124 117.207 352.508 110.045C354.761 107.84 350.837 104.933 348.583 107.133Z" fill="#6A6AEB"/>
<path d="M31.9949 62.3037C37.1923 52.4677 47.3679 45.1912 59.5023 42.6332C62.7765 41.9305 61.054 37.7009 57.791 38.3979C44.3414 41.3491 33.0922 49.4674 27.3153 60.3916C25.9123 63.0571 30.5711 65.0009 31.9911 62.3292L31.9949 62.3037Z" fill="#6A6AEB"/>
<path d="M317.554 114.119C334.49 108.481 347.689 96.542 353.402 81.6926C354.476 78.9208 349.341 78.1272 348.277 80.8681C342.997 94.1739 331.075 104.838 315.842 109.879C312.68 110.92 314.369 115.162 317.554 114.114L317.554 114.119Z" fill="#6A6AEB"/>
<path d="M67.143 101.809C67.1664 102.128 66.1782 102.361 64.1782 102.508L62.384 102.544C61.314 102.537 60.7711 102.427 60.7555 102.214L59.1828 80.7997C59.1563 80.438 60.2068 80.179 62.3344 80.0228C64.462 79.8665 65.5391 79.9693 65.5656 80.331L66.1656 88.5009L69.4591 80.045C69.5862 79.7362 70.4263 79.5248 71.9795 79.4107C74.8092 79.2029 76.3165 79.3382 76.5013 79.8166C76.5045 79.8592 76.4969 79.9025 76.4788 79.9466L71.6617 90.3754L78.7622 98.806C78.7654 98.8486 78.5765 99.0443 78.1957 99.3931C77.2795 100.316 76.1798 101.071 74.8967 101.657C74.5033 101.835 74.1046 101.94 73.7003 101.969L72.9297 101.962C72.2364 101.841 71.6724 101.444 71.2379 100.77L67.0888 94.0803L66.5781 94.1178L67.143 101.809ZM87.0798 100.602C87.0908 100.751 86.3303 100.881 84.7984 100.994C82.6661 101.086 81.5938 101.047 81.5813 100.877L80.8219 90.537L79.9921 90.5979C79.4389 90.6385 79.0429 90.197 78.8039 89.2734C78.741 88.9999 78.6994 88.7249 78.6791 88.4483C78.6307 87.7887 78.7099 87.1198 78.9168 86.4415C79.231 85.4772 79.7924 84.9654 80.6009 84.906C81.4093 84.8466 82.1468 84.985 82.8132 85.3211C83.4796 85.6572 83.9332 86.0089 84.1741 86.3762C85.4301 85.1289 86.9837 84.4373 88.8347 84.3013C90.6857 84.1654 92.0628 84.5669 92.966 85.506C93.8692 86.445 94.4044 88.0528 94.5716 90.3293L95.2747 99.9035C95.2935 100.159 94.388 100.354 92.5582 100.488C90.7498 100.621 89.8362 100.56 89.8174 100.304L89.1401 91.0812C89.0619 90.0174 88.6506 89.5128 87.9059 89.5675C87.6931 89.5831 87.4023 89.7007 87.0334 89.9203C86.6629 90.1187 86.4276 90.2643 86.3275 90.3572L87.0798 100.602ZM99.2356 98.0084C97.8086 96.6372 96.9998 94.6538 96.8092 92.0581C96.6186 89.4624 97.1289 87.3821 98.3402 85.8172C99.5728 84.2507 101.317 83.3846 103.572 83.219C105.827 83.0534 107.668 83.6562 109.095 85.0273C110.522 86.3985 111.331 88.3819 111.522 90.9776C111.712 93.5733 111.202 95.6536 109.991 97.2185C108.779 98.7834 107.046 99.6487 104.791 99.8143C102.535 99.9799 100.684 99.378 99.2356 98.0084ZM103.963 88.5487C102.772 88.6362 102.248 89.6586 102.392 91.616C102.536 93.5734 103.203 94.5083 104.395 94.4208C105.607 94.3318 106.142 93.3086 105.998 91.3512C105.854 89.3938 105.176 88.4596 103.963 88.5487ZM129.767 81.7765C129.753 81.5851 130.331 81.4464 131.501 81.3604C134.139 81.1667 135.443 81.1565 135.413 81.3298L133.425 97.0697C133.386 97.4148 132.218 97.6717 129.92 97.8405C127.622 98.0092 126.429 97.9258 126.34 97.59L124.506 90.5374L123.404 97.8056C123.363 98.1295 122.152 98.3789 119.769 98.5539C117.407 98.7273 116.18 98.6249 116.089 98.2466L112.107 82.9131C112.034 82.7901 112.944 82.6591 114.837 82.52C116.711 82.4038 117.65 82.3776 117.655 82.4414L119.915 93.1206L121.781 82.2667C121.815 82.136 122.512 82.0206 123.874 81.9206C125.235 81.8206 125.942 81.8328 125.994 81.9574L129.384 92.2968L129.767 81.7765ZM151.703 95.8557C151.722 96.111 150.837 96.3043 149.05 96.4356C146.916 96.5067 145.842 96.4465 145.828 96.2551L144.999 84.9575L143.371 85.077C142.945 85.1083 142.679 84.3899 142.571 82.9218C142.543 82.5389 142.54 82.0684 142.564 81.5106C142.608 80.9511 142.747 80.6628 142.981 80.6456L144.673 80.5214L144.467 77.713C144.435 77.2875 145.313 77.0091 147.1 76.8778C148.909 76.745 149.826 76.8488 149.851 77.1892L150.001 79.2317L150.098 80.123L152.811 79.9238C153.173 79.8972 153.408 80.6286 153.517 82.1179C153.627 83.6072 153.501 84.3652 153.139 84.3917L150.873 84.5581L151.703 95.8557ZM161.439 95.1086C161.454 95.3001 160.567 95.4614 158.78 95.5927C157.014 95.7224 156.12 95.6383 156.098 95.3404L154.493 73.4793C154.482 73.3303 154.804 73.1997 155.459 73.0875C156.113 72.9752 156.664 72.9027 157.111 72.8699C158.898 72.7386 159.806 72.8645 159.834 73.2474L160.303 79.6303C161.468 79.1811 162.359 78.9338 162.976 78.8885C164.593 78.7697 165.901 79.1122 166.901 79.9157C167.9 80.698 168.485 82.2593 168.657 84.5997L169.384 94.4931C169.398 94.6845 168.575 94.8412 166.916 94.9631C165.039 95.0368 164.095 94.9991 164.084 94.8502L163.395 85.4675C163.318 84.4249 162.939 83.9287 162.259 83.9787C161.79 84.0131 161.264 84.2763 160.68 84.7684L161.439 95.1086ZM177.941 93.9288C177.953 94.099 176.981 94.256 175.023 94.3997C173.087 94.5419 172.114 94.5386 172.103 94.3896L170.952 78.7198C170.941 78.5709 171.904 78.4253 173.84 78.2832C175.797 78.1394 176.78 78.1314 176.79 78.259L177.941 93.9288ZM176.652 76.3761C176.663 76.525 175.689 76.6714 173.732 76.8151C171.796 76.9573 170.823 76.9646 170.814 76.8369L170.476 72.2413C170.461 72.0285 171.421 71.851 173.357 71.7089C175.314 71.5651 176.298 71.5571 176.307 71.6847L176.652 76.3761ZM181.089 88.1146C182.889 89.0305 184.289 89.4518 185.289 89.3784C185.927 89.3315 186.23 89.0847 186.197 88.6379C186.174 88.3187 185.59 87.9445 184.446 87.5151C181.707 86.6253 180.247 84.9464 180.066 82.4784C179.95 80.904 180.436 79.6597 181.524 78.7456C182.612 77.8314 183.954 77.3158 185.55 77.1986C187.167 77.0798 188.541 77.15 189.672 77.4092C190.825 77.6668 191.421 78.0722 191.462 78.6254C191.496 79.0934 191.308 79.7276 190.896 80.5279C190.505 81.3267 190.227 81.7642 190.062 81.8406C189.109 81.3971 188.101 81.2145 187.038 81.2926C186.463 81.3348 186.191 81.558 186.22 81.9622C186.239 82.2175 186.362 82.4331 186.589 82.609C186.835 82.762 187.267 82.9549 187.883 83.1878C188.497 83.3993 189.004 83.5974 189.402 83.7821C189.822 83.9651 190.291 84.2302 190.808 84.5772C191.889 85.3107 192.477 86.3264 192.572 87.6242C192.697 89.3263 192.235 90.7507 191.185 91.8973C190.134 93.0226 188.471 93.6689 186.194 93.8361C184.683 93.947 183.292 93.7925 182.021 93.3725C180.749 92.9525 180.081 92.2957 180.015 91.4021C179.971 90.8063 180.064 90.1686 180.292 89.4887C180.541 88.8072 180.807 88.3492 181.089 88.1146ZM201.472 86.6177C203.272 87.5336 204.672 87.9549 205.672 87.8815C206.31 87.8346 206.613 87.5878 206.58 87.141C206.556 86.8218 205.973 86.4476 204.829 86.0182C202.09 85.1284 200.63 83.4495 200.448 80.9815C200.333 79.4071 200.819 78.1628 201.907 77.2487C202.995 76.3345 204.337 75.8188 205.932 75.7017C207.549 75.5829 208.923 75.6531 210.055 75.9123C211.207 76.1699 211.804 76.5753 211.845 77.1285C211.879 77.5965 211.69 78.2307 211.279 79.031C210.888 79.8298 210.61 80.2673 210.444 80.3436C209.492 79.9002 208.484 79.7176 207.42 79.7957C206.846 79.8379 206.573 80.0611 206.603 80.4653C206.622 80.7206 206.745 80.9362 206.971 81.1121C207.218 81.2651 207.649 81.458 208.265 81.6909C208.88 81.9024 209.386 82.1005 209.785 82.2852C210.205 82.4682 210.673 82.7333 211.191 83.0803C212.272 83.8138 212.859 84.8295 212.955 86.1273C213.08 87.8294 212.618 89.2538 211.568 90.4004C210.517 91.5257 208.853 92.172 206.577 92.3392C205.066 92.4501 203.675 92.2956 202.403 91.8756C201.132 91.4556 200.463 90.7988 200.398 89.9052C200.354 89.3094 200.446 88.6716 200.674 87.9918C200.924 87.3103 201.19 86.8523 201.472 86.6177ZM214.274 75.6024C214.257 75.3684 215.163 75.1842 216.993 75.0498C218.822 74.9155 219.746 74.9653 219.763 75.1993L220.447 84.5182C220.525 85.582 220.905 86.0889 221.586 86.0389C222.096 86.0014 222.654 85.7358 223.26 85.2422L222.508 74.9978C222.492 74.785 223.388 74.6122 225.197 74.4794C227.005 74.3466 227.917 74.3866 227.933 74.5993L228.702 85.0671L229.531 85.0062C230.255 84.9531 230.667 85.618 230.769 87.0009C230.82 87.703 230.724 88.4267 230.479 89.172C230.122 90.1394 229.582 90.6496 228.859 90.7027C227.433 90.8074 226.337 90.2997 225.57 89.1795L225.541 89.2138C224.327 90.458 222.976 91.1348 221.487 91.2442C219.423 91.3957 217.864 90.9968 216.811 90.0474C215.755 89.0768 215.14 87.4 214.965 85.0171L214.274 75.6024ZM231.477 67.8256C231.458 67.5703 232.363 67.3754 234.193 67.241C236.044 67.1051 236.98 67.1754 237 67.452L237.455 73.6433C238.357 73.4059 239 73.2732 239.383 73.2451C243.851 72.9169 246.273 75.3166 246.65 80.4442C246.859 83.2951 246.329 85.548 245.06 87.2027C243.811 88.8346 241.921 89.7435 239.389 89.9294C236.878 90.1138 234.752 89.7031 233.009 88.6974L231.477 67.8256ZM238.855 78.2893C238.493 78.3158 238.151 78.4586 237.827 78.7177L238.275 84.8133C238.582 84.919 238.895 84.9602 239.215 84.9368C239.555 84.9118 239.886 84.7591 240.208 84.4788C240.772 84.0095 240.997 82.9983 240.883 81.4452C240.722 79.2537 240.046 78.2018 238.855 78.2893ZM249.449 87.7467L248.368 73.0344C248.359 72.9067 249.312 72.7726 251.227 72.6319C253.163 72.4897 254.135 72.4718 254.143 72.5782L255.392 89.5884C255.507 91.1628 254.939 92.4559 253.687 93.4677C252.458 94.4991 250.865 95.0867 248.908 95.2305C246.163 95.432 244.72 94.5754 244.58 92.6606C244.533 92.0223 244.6 91.4826 244.782 91.0414C244.975 91.0486 245.241 91.0397 245.582 91.0147C247.135 90.9007 248.181 90.5779 248.719 90.0463C249.279 89.5132 249.522 88.7467 249.449 87.7467ZM248.23 71.1514L247.893 66.5558C247.877 66.343 248.827 66.1663 250.741 66.0257C252.678 65.8835 253.65 65.8763 253.66 66.0039L254.004 70.6953C254.015 70.8442 253.053 70.9898 251.116 71.132C249.202 71.2726 248.24 71.2791 248.23 71.1514ZM270.195 86.4798C268.913 87.3655 267.218 87.8856 265.112 88.0403C263.006 88.195 261.177 87.6127 259.625 86.2935C258.072 84.953 257.203 83.0168 257.017 80.4849C256.829 77.9318 257.37 75.8279 258.639 74.1732C259.929 72.5169 261.638 71.6106 263.766 71.4544C265.893 71.2981 267.571 71.7204 268.8 72.7211C270.05 73.7202 270.732 74.9963 270.846 76.5495C271.099 79.9962 269.247 81.8649 265.289 82.1555L263.087 82.3172C263.134 82.9555 263.337 83.3898 263.696 83.6201C264.075 83.8276 264.605 83.9063 265.286 83.8563C266.775 83.747 268.165 83.3026 269.456 82.5234C269.475 82.5005 269.582 82.6424 269.776 82.9491C270.353 83.8264 270.666 84.5843 270.713 85.2225C270.758 85.8395 270.586 86.2586 270.195 86.4798ZM265.529 77.5496C265.463 76.656 264.994 76.2413 264.122 76.3053C263.718 76.335 263.376 76.4884 263.097 76.7656C262.837 77.02 262.725 77.3812 262.759 77.8493L262.832 78.8386L264.555 78.712C265.257 78.6605 265.582 78.273 265.529 77.5496ZM278.368 78.7885C278.522 80.8736 279.385 81.8583 280.96 81.7427C281.981 81.6677 282.817 81.403 283.468 80.9488C283.788 80.9254 284.083 81.4598 284.356 82.5521C284.649 83.6215 284.81 84.3584 284.839 84.7626C284.868 85.1456 284.833 85.4048 284.736 85.5403C283.66 86.3252 282.143 86.7895 280.186 86.9333C278.229 87.077 276.505 86.4763 275.016 85.1311C273.547 83.7631 272.72 81.8237 272.535 79.3132C272.349 76.7813 272.869 74.6896 274.096 73.038C275.343 71.3849 277.084 70.4763 279.318 70.3122C281.573 70.1466 283.177 70.5743 284.129 71.5953C284.338 71.8153 284.459 72.1593 284.494 72.6273C284.526 73.0741 284.482 73.6336 284.36 74.3056C284.077 75.6954 283.635 76.5194 283.034 76.7774C282.95 76.805 282.823 76.825 282.653 76.8375C282.504 76.8484 282.303 76.7348 282.05 76.4967C281.16 75.7279 280.459 75.3622 279.949 75.3997C279.459 75.4356 279.052 75.7222 278.728 76.2594C278.404 76.7966 278.284 77.6396 278.368 78.7885ZM294.568 85.3637C294.587 85.619 293.703 85.8123 291.915 85.9435C289.782 86.0147 288.708 85.9545 288.694 85.763L287.864 74.4654L286.236 74.585C285.811 74.6162 285.544 73.8978 285.436 72.4298C285.408 72.0468 285.406 71.5764 285.429 71.0185C285.473 70.4591 285.613 70.1708 285.847 70.1536L287.538 70.0294L287.332 67.221C287.301 66.7954 288.179 66.517 289.966 66.3858C291.774 66.253 292.691 66.3568 292.716 66.6972L292.866 68.7397L292.963 69.631L295.676 69.4317C296.038 69.4052 296.273 70.1365 296.383 71.6259C296.492 73.1152 296.366 73.8731 296.004 73.8997L293.738 74.0661L294.568 85.3637ZM304.336 78.4858C302.655 78.6092 301.8 78.4688 301.77 78.0646L301.681 76.8518C301.611 75.8944 302.319 74.6125 303.805 73.0059C304.36 72.409 304.857 71.7415 305.294 71.0035C305.753 70.2639 305.962 69.6068 305.92 69.0324C305.842 67.9686 305.185 67.482 303.951 67.5726C302.739 67.6617 301.545 68.1558 300.37 69.0549C299.503 68.3058 298.872 67.4323 298.477 66.4345C298.325 66.1035 298.239 65.8103 298.22 65.555C298.2 65.2784 298.234 65.0192 298.324 64.7773C298.453 64.2116 299.202 63.6326 300.57 63.0401C301.96 62.4461 303.442 62.0912 305.016 61.9756C307.399 61.8006 309.224 62.18 310.49 63.1137C311.757 64.0475 312.455 65.3973 312.585 67.1632C312.644 67.9717 312.5 68.7844 312.154 69.6013C311.827 70.3954 311.399 71.1113 310.868 71.7493C310.357 72.3643 309.844 72.9475 309.328 73.4988C308.081 74.8738 307.482 75.891 307.531 76.5506L307.601 77.508C307.62 77.7633 307.24 77.9837 306.462 78.1692C305.683 78.3334 304.974 78.4389 304.336 78.4858ZM307.937 84.7027C307.946 84.8304 307.068 84.9591 305.302 85.0888C303.557 85.2169 302.681 85.2278 302.673 85.1214L302.305 80.1109C302.293 79.9407 303.159 79.7915 304.904 79.6634C306.669 79.5337 307.556 79.522 307.564 79.6284L307.937 84.7027Z" fill="#5B4CCC"/>
</g>
<defs>
<clipPath id="clip0_20_36">
<rect width="367.352" height="193.553" fill="white" transform="translate(0 26.9059) rotate(-4.20027)"/>
</clipPath>
</defs>
</svg>
