<svg width="420" height="294" viewBox="0 0 420 294" fill="none" xmlns="http://www.w3.org/2000/svg">
<g clip-path="url(#clip0_20_29)">
<path d="M34.7875 143.788C58.2395 115.747 93.6354 104.964 127.332 101.83C148.436 99.8666 169.657 100.483 190.827 100.359C193.36 100.352 195.892 100.328 198.423 100.287C201.261 100.243 202.271 99.9978 204.201 97.7691C207.699 93.7826 211.221 89.8278 214.77 85.9047C221.874 78.0532 229.084 70.3209 236.399 62.7078C253.193 45.2284 270.527 28.4103 288.4 12.2534L283.965 8.90096C279.354 38.6875 274.738 68.474 270.119 98.261C269.847 100.048 271.17 102.521 273.119 102.128C298.499 97.0057 323.225 86.1472 349.436 87.4442C359.974 87.9645 370.689 90.4674 380.013 96.1311C389.996 102.198 397.263 111.92 401.434 123.495C405.801 135.617 407.154 148.705 408.051 161.577C408.957 174.611 409.716 187.794 408.793 200.834C407.894 213.597 405.226 226.39 399.027 237.337C393.598 246.922 385.496 254.303 376.367 259.338C357.279 269.77 334.67 270.909 313.655 270.903C285.078 270.89 256.476 270.039 227.927 269.572L139.941 268.163C126.211 267.947 112.472 267.908 98.748 267.43C87.4174 267.029 76.047 266.123 64.9509 263.351C44.0627 258.104 25.4382 244.805 18.4874 221.652C12.0793 200.342 15.897 176.22 25.9169 157.187C28.4538 152.394 31.4349 147.904 34.8131 143.787C37.2922 140.752 32.9695 136.489 30.49 139.517C16.2865 156.908 8.4961 180.803 9.71913 204.282C10.9643 228.296 22.5327 249.515 42.1169 260.998C63.1434 273.322 88.1505 273.673 111.356 274.042L205.117 275.547L298.247 277.042C321.453 277.418 345.526 278.017 367.82 269.979C377.932 266.347 387.392 260.758 395.071 252.692C403.507 243.83 408.998 232.279 411.882 219.912C414.956 206.75 415.262 192.889 414.812 179.35C414.363 165.812 413.613 151.964 411.265 138.569C408.943 125.313 404.599 112.419 396.232 102.226C389.021 93.4269 379.311 87.6564 369.042 84.4447C344.325 76.7176 319.202 83.5215 295.16 90.1759C287.74 92.2305 280.313 94.2575 272.782 95.7811L275.781 99.6267C280.419 69.8531 285.035 40.0734 289.629 10.288C290.007 7.83789 287.264 5.05948 285.194 6.93565C254.804 34.4109 225.897 63.793 198.615 94.9372L200.607 93.8988C152.932 94.8029 102.516 90.1807 59.0681 115.463C48.3476 121.642 38.6765 129.775 30.4644 139.519C27.9578 142.52 32.2806 146.782 34.7875 143.788Z" fill="#6A6AEB"/>
<path d="M384.704 220.891C378.894 234.492 367.592 244.273 354.154 247.332C350.528 248.174 352.407 254.199 356.02 253.364C370.916 249.811 383.41 238.894 389.869 223.788C391.438 220.102 386.296 217.161 384.709 220.855L384.704 220.891Z" fill="#6A6AEB"/>
<path d="M69.1551 135.341C50.3852 142.518 35.7106 158.722 29.2986 179.35C28.0929 183.2 33.7676 184.545 34.9625 180.737C40.8854 162.26 54.1404 147.793 71.0217 141.381C74.5258 140.057 72.6845 134.016 69.1552 135.349L69.1551 135.341Z" fill="#6A6AEB"/>
<path d="M97.5613 175.712C95.6653 175.813 94.706 175.65 94.6834 175.224L93.3307 162.446L90.1223 175.627C90.0507 175.887 89.3332 176.054 87.9698 176.126C86.6064 176.199 85.8971 176.119 85.8421 175.887L81.1172 162.968L81.348 175.741C81.3437 176.062 80.9508 176.307 80.1694 176.477C79.3868 176.626 78.7293 176.714 78.1967 176.742C77.6854 176.769 77.1831 176.764 76.6897 176.726C75.6592 176.632 75.1444 176.392 75.1454 176.007L74.7755 155.198C74.7483 154.686 76.0342 154.361 78.6332 154.223C79.4001 154.182 80.3408 154.196 81.4554 154.265C82.5688 154.313 83.1985 154.504 83.3445 154.838L87.4588 164.713L90.0533 154.449C90.2156 153.885 91.6707 153.53 94.4189 153.384C95.2071 153.342 96.1478 153.356 97.2411 153.426C98.3545 153.473 98.9192 153.646 98.935 153.944L100.977 174.858C100.989 175.092 100.583 175.284 99.7577 175.435C98.9326 175.586 98.2004 175.678 97.5613 175.712ZM105.418 163.63C104.765 162.596 104.421 161.749 104.385 161.089C104.349 160.407 104.507 159.961 104.859 159.75C106.045 159.153 107.692 158.798 109.801 158.686C111.932 158.573 113.46 158.993 114.387 159.948C115.313 160.882 115.827 162.318 115.93 164.256L116.199 169.305L117.285 169.247C117.647 169.228 117.935 169.426 118.15 169.842C118.386 170.257 118.523 170.837 118.563 171.583C118.603 172.328 118.45 173.074 118.105 173.818C117.781 174.562 117.3 174.951 116.661 174.985C115.511 175.046 114.567 174.786 113.832 174.206C113.498 173.967 113.237 173.671 113.047 173.318C112.133 174.606 110.643 175.305 108.576 175.415C107.021 175.497 105.682 175.013 104.557 173.962C103.433 172.911 102.831 171.629 102.751 170.117C102.566 166.644 104.551 164.798 108.705 164.577L110.462 164.483L110.445 164.164C110.416 163.61 110.301 163.263 110.102 163.124C109.922 162.963 109.502 162.9 108.842 162.935C108.032 162.978 106.891 163.21 105.418 163.63ZM108.287 169.374C108.312 169.842 108.459 170.198 108.728 170.44C108.996 170.66 109.322 170.76 109.706 170.74C110.11 170.719 110.464 170.54 110.767 170.203L110.636 167.742L109.741 167.79C108.718 167.844 108.234 168.372 108.287 169.374ZM119.353 152.346C119.335 152.005 120.296 151.783 122.234 151.68C124.048 151.647 124.961 151.738 124.972 151.951L125.625 164.221L128.478 158.205C128.61 157.878 129.507 157.67 131.168 157.581C132.83 157.493 133.901 157.543 134.381 157.731L130.587 164.726L135.858 173.451C135.905 173.534 135.504 173.619 134.654 173.707C133.826 173.815 133.136 173.884 132.582 173.913C130.537 174.022 129.434 173.985 129.275 173.801L125.734 166.875L126.11 173.937C126.125 174.214 125.195 174.403 123.32 174.502C121.467 174.601 120.533 174.522 120.519 174.267L119.353 152.346ZM148.727 172.093C147.427 172.953 145.723 173.439 143.614 173.551C141.505 173.663 139.688 173.044 138.163 171.694C136.638 170.322 135.807 168.369 135.672 165.834C135.536 163.278 136.119 161.185 137.421 159.556C138.745 157.926 140.472 157.055 142.602 156.941C144.732 156.828 146.401 157.284 147.61 158.309C148.839 159.333 149.495 160.623 149.578 162.178C149.761 165.629 147.872 167.46 143.91 167.671L141.705 167.788C141.739 168.427 141.933 168.866 142.287 169.103C142.662 169.318 143.19 169.408 143.872 169.371C145.363 169.292 146.762 168.876 148.067 168.123C148.088 168.1 148.191 168.244 148.379 168.555C148.939 169.444 149.236 170.208 149.27 170.847C149.303 171.465 149.122 171.88 148.727 172.093ZM144.242 163.071C144.194 162.176 143.734 161.752 142.86 161.798C142.455 161.82 142.111 161.966 141.826 162.238C141.562 162.487 141.442 162.846 141.467 163.315L141.519 164.305L143.245 164.213C143.948 164.176 144.28 163.795 144.242 163.071ZM172.742 151.364C172.765 151.791 172.67 152.415 172.457 153.238C172.243 154.04 171.98 154.716 171.668 155.267C171.376 155.817 171.124 156.097 170.911 156.108C170.847 156.112 170.782 156.094 170.716 156.055C170.075 155.64 169.04 155.471 167.613 155.547C165.717 155.648 164.425 156.464 163.737 157.996L169.425 157.694C169.724 157.678 169.946 157.837 170.092 158.171C170.143 158.339 170.174 158.508 170.183 158.679C170.192 158.849 170.18 159.021 170.146 159.193C170.036 159.541 169.832 159.723 169.534 159.739L163.431 160.063C163.472 160.83 163.519 161.319 163.573 161.53L169.612 161.209C169.911 161.193 170.12 161.31 170.24 161.56C170.36 161.81 170.425 162.02 170.434 162.19C170.443 162.361 170.42 162.533 170.365 162.707C170.255 163.054 170.041 163.237 169.721 163.254L164.257 163.544C165.41 165.149 166.871 165.905 168.639 165.811C169.151 165.784 169.711 165.679 170.321 165.497C170.93 165.294 171.316 165.124 171.48 164.987C171.664 164.827 171.777 164.747 171.819 164.744C171.99 164.735 172.238 164.989 172.565 165.506C172.913 166.021 173.246 166.666 173.565 167.439C173.884 168.213 174.053 168.781 174.072 169.143C174.116 169.974 173.555 170.666 172.388 171.219C171.221 171.773 169.818 172.093 168.177 172.18C165.45 172.325 163.105 171.414 161.142 169.446C159.2 167.477 158.136 164.735 157.949 161.22C157.76 157.684 158.518 154.856 160.221 152.735C161.944 150.593 164.212 149.447 167.024 149.297C168.494 149.219 169.805 149.374 170.958 149.761C172.11 150.127 172.705 150.661 172.742 151.364ZM187.954 170.648C187.964 170.839 187.074 170.983 185.285 171.078C183.517 171.172 182.625 171.07 182.609 170.772L181.445 148.883C181.437 148.734 181.761 148.609 182.418 148.51C183.075 148.411 183.627 148.35 184.075 148.326C185.864 148.231 186.769 148.375 186.79 148.759L187.13 155.15C188.303 154.724 189.199 154.495 189.817 154.462C191.436 154.376 192.737 154.744 193.721 155.568C194.704 156.37 195.257 157.943 195.382 160.286L195.909 170.192C195.919 170.384 195.093 170.524 193.432 170.613C191.554 170.648 190.611 170.592 190.603 170.443L190.103 161.048C190.048 160.004 189.679 159.5 188.997 159.537C188.529 159.561 187.997 159.814 187.403 160.294L187.954 170.648ZM210.671 168.798C209.371 169.658 207.666 170.144 205.557 170.256C203.448 170.368 201.631 169.749 200.107 168.399C198.581 167.027 197.751 165.074 197.616 162.539C197.48 159.983 198.063 157.89 199.365 156.261C200.688 154.631 202.415 153.76 204.546 153.646C206.676 153.533 208.345 153.989 209.553 155.014C210.783 156.038 211.439 157.328 211.522 158.883C211.705 162.334 209.816 164.165 205.853 164.376L203.648 164.493C203.682 165.132 203.877 165.571 204.231 165.808C204.606 166.023 205.134 166.113 205.816 166.076C207.307 165.997 208.705 165.581 210.011 164.828C210.031 164.805 210.135 164.949 210.323 165.26C210.883 166.149 211.18 166.913 211.214 167.552C211.246 168.17 211.066 168.585 210.671 168.798ZM206.185 159.776C206.138 158.881 205.677 158.457 204.804 158.503C204.399 158.525 204.054 158.672 203.77 158.943C203.505 159.192 203.386 159.551 203.41 160.02L203.463 161.01L205.189 160.918C205.892 160.881 206.224 160.5 206.185 159.776ZM219.981 168.912C219.991 169.104 218.91 169.257 216.737 169.373C215.031 169.442 214.175 169.402 214.167 169.253L213.009 147.492C212.992 147.173 214.017 146.958 216.083 146.848C217.897 146.816 218.808 146.874 218.816 147.023L219.981 168.912ZM230.065 174.464C230.073 174.613 229.16 174.737 227.328 174.834C225.518 174.93 224.608 174.904 224.6 174.755L223.725 158.298L222.638 158.356C222.127 158.383 221.751 157.933 221.509 157.006C221.429 156.711 221.377 156.329 221.352 155.861C221.327 155.392 221.447 154.83 221.711 154.175C222.087 153.215 222.744 152.71 223.681 152.661C224.299 152.628 224.872 152.747 225.399 153.018C225.946 153.266 226.322 153.513 226.528 153.759C226.753 153.982 226.867 154.115 226.869 154.157C228.238 152.974 229.753 152.338 231.415 152.249C233.076 152.161 234.538 152.735 235.8 153.971C237.061 155.185 237.764 157.146 237.907 159.851C238.05 162.535 237.565 164.655 236.451 166.209C235.336 167.743 233.863 168.558 232.031 168.656C231.2 168.7 230.441 168.697 229.755 168.648L230.065 174.464ZM230.498 157.906C230.136 157.925 229.79 158.061 229.462 158.313L229.763 163.969C230.127 163.993 230.416 163.999 230.629 163.987C230.863 163.975 231.044 163.965 231.172 163.959C232.041 163.827 232.418 162.685 232.304 160.534C232.207 158.723 231.605 157.847 230.498 157.906ZM246.447 167.568C246.457 167.739 245.481 167.876 243.521 167.98C241.583 168.083 240.609 168.06 240.601 167.911L239.767 152.222C239.759 152.072 240.724 151.946 242.663 151.843C244.623 151.739 245.606 151.751 245.613 151.878L246.447 167.568ZM245.513 149.993C245.521 150.142 244.545 150.269 242.585 150.373C240.646 150.476 239.673 150.464 239.667 150.336L239.422 145.735C239.41 145.522 240.374 145.364 242.313 145.26C244.273 145.156 245.256 145.168 245.263 145.296L245.513 149.993ZM256.016 167.059C256.024 167.208 255.261 167.324 253.727 167.405C251.593 167.455 250.522 167.394 250.513 167.224L249.962 156.871L249.131 156.915C248.577 156.944 248.19 156.495 247.97 155.566C247.913 155.292 247.877 155.016 247.862 154.739C247.827 154.079 247.92 153.411 248.14 152.737C248.474 151.78 249.045 151.279 249.855 151.236C250.664 151.193 251.399 151.346 252.058 151.696C252.718 152.045 253.164 152.406 253.398 152.778C254.679 151.556 256.246 150.896 258.099 150.798C259.952 150.699 261.321 151.128 262.205 152.085C263.089 153.043 263.592 154.661 263.713 156.94L264.223 166.527C264.237 166.782 263.328 166.959 261.495 167.056C259.685 167.153 258.773 167.073 258.759 166.817L258.268 157.582C258.211 156.517 257.81 156.004 257.064 156.044C256.851 156.055 256.558 156.167 256.185 156.379C255.81 156.57 255.572 156.711 255.47 156.802L256.016 167.059ZM272.827 166.357C270.761 166.467 269.128 165.892 267.929 164.631C266.728 163.349 266.059 161.409 265.921 158.81C265.781 156.189 266.407 154.105 267.799 152.557C269.211 150.986 271.142 150.136 273.592 150.006C276.063 149.874 278.126 150.309 279.782 151.311L280.628 167.224C280.712 168.801 280.137 170.038 278.903 170.937C277.67 171.857 276.053 172.371 274.05 172.477C272.048 172.584 270.245 172.423 268.641 171.996C268.401 171.496 268.27 171.043 268.248 170.639C268.176 169.275 268.346 168.262 268.76 167.599C270.22 168.141 271.759 168.369 273.378 168.283C274.55 168.221 275.114 167.774 275.07 166.943L275.019 165.984C274.112 166.204 273.381 166.328 272.827 166.357ZM273.709 155.223C272.282 155.299 271.625 156.413 271.74 158.564C271.811 159.906 272.135 160.765 272.71 161.14C273.087 161.398 273.456 161.517 273.819 161.498C274.181 161.479 274.499 161.43 274.772 161.351L274.449 155.28C274.19 155.229 273.944 155.21 273.709 155.223ZM290.721 163.515C289.322 162.115 288.553 160.116 288.415 157.517C288.277 154.918 288.829 152.848 290.072 151.308C291.335 149.767 293.097 148.936 295.355 148.816C297.613 148.696 299.441 149.336 300.84 150.735C302.239 152.135 303.008 154.134 303.146 156.733C303.284 159.332 302.732 161.402 301.49 162.942C300.247 164.482 298.497 165.312 296.239 165.433C293.98 165.553 292.141 164.913 290.721 163.515ZM295.639 154.152C294.446 154.216 293.901 155.228 294.005 157.188C294.11 159.147 294.758 160.096 295.951 160.032C297.166 159.968 297.721 158.955 297.616 156.995C297.512 155.036 296.853 154.088 295.639 154.152ZM313.17 164.019C313.183 164.275 312.295 164.45 310.506 164.545C308.371 164.574 307.298 164.492 307.288 164.3L306.687 152.988L305.057 153.075C304.631 153.097 304.379 152.374 304.3 150.904C304.28 150.52 304.287 150.05 304.322 149.493C304.377 148.934 304.522 148.649 304.757 148.636L306.45 148.546L306.301 145.734C306.278 145.308 307.161 145.048 308.951 144.952C310.762 144.856 311.676 144.978 311.694 145.319L311.803 147.364L311.883 148.257L314.599 148.113C314.961 148.094 315.182 148.83 315.261 150.321C315.34 151.812 315.199 152.567 314.837 152.587L312.568 152.707L313.17 164.019ZM322.919 163.469C322.93 163.66 322.04 163.804 320.25 163.899C318.482 163.993 317.59 163.891 317.574 163.593L316.41 141.704C316.402 141.554 316.727 141.43 317.384 141.331C318.041 141.232 318.593 141.171 319.04 141.147C320.83 141.052 321.735 141.196 321.755 141.58L322.095 147.97C323.269 147.545 324.164 147.316 324.782 147.283C326.401 147.197 327.703 147.565 328.687 148.389C329.669 149.191 330.223 150.764 330.348 153.107L330.874 163.013C330.885 163.205 330.059 163.345 328.397 163.434C326.519 163.469 325.576 163.413 325.568 163.264L325.069 153.869C325.013 152.825 324.644 152.321 323.963 152.357C323.494 152.382 322.963 152.635 322.369 153.115L322.919 163.469ZM345.636 161.619C344.336 162.479 342.632 162.965 340.523 163.077C338.414 163.189 336.597 162.57 335.072 161.22C333.547 159.848 332.716 157.895 332.582 155.36C332.446 152.804 333.029 150.711 334.331 149.082C335.654 147.452 337.381 146.581 339.511 146.467C341.641 146.354 343.311 146.81 344.519 147.835C345.748 148.859 346.404 150.149 346.487 151.704C346.671 155.155 344.781 156.986 340.819 157.197L338.614 157.314C338.648 157.953 338.842 158.392 339.197 158.629C339.571 158.844 340.099 158.934 340.781 158.897C342.272 158.818 343.671 158.402 344.977 157.649C344.997 157.626 345.101 157.77 345.288 158.081C345.848 158.97 346.145 159.734 346.179 160.373C346.212 160.991 346.031 161.406 345.636 161.619ZM341.151 152.597C341.103 151.702 340.643 151.278 339.769 151.324C339.365 151.346 339.02 151.492 338.735 151.764C338.471 152.013 338.351 152.372 338.376 152.841L338.429 153.831L340.154 153.739C340.857 153.702 341.189 153.321 341.151 152.597ZM356.14 161.894C356.148 162.043 355.183 162.169 353.244 162.272C351.304 162.333 350.33 162.299 350.323 162.171L349.759 151.562L348.896 151.608C348.555 151.626 348.267 151.439 348.033 151.045C347.818 150.629 347.695 150.112 347.662 149.495C347.539 147.194 348.16 146.007 349.523 145.935C350.482 145.884 351.297 146.139 351.968 146.702C352.637 147.243 352.992 147.887 353.032 148.632C353.432 147.735 353.992 147.011 354.711 146.46C355.449 145.887 356.213 145.579 357.001 145.537C358.236 145.471 358.999 145.751 359.289 146.377C359.362 146.544 359.407 146.798 359.425 147.138C359.442 147.458 359.367 148.049 359.199 148.913C359.053 149.775 358.883 150.404 358.691 150.799C358.498 151.193 358.38 151.392 358.338 151.394C358.295 151.396 358.089 151.333 357.719 151.203C357.369 151.051 357.055 150.982 356.778 150.996C355.969 151.04 355.598 151.7 355.666 152.978L356.14 161.894ZM362.179 155.836C363.96 156.789 365.351 157.238 366.352 157.185C366.991 157.151 367.299 156.91 367.275 156.463C367.258 156.143 366.682 155.757 365.547 155.305C362.826 154.36 361.4 152.652 361.269 150.181C361.185 148.604 361.696 147.37 362.802 146.478C363.909 145.586 365.261 145.098 366.858 145.013C368.477 144.926 369.85 145.024 370.976 145.306C372.123 145.587 372.711 146.004 372.741 146.558C372.766 147.027 372.564 147.657 372.136 148.449C371.73 149.24 371.443 149.672 371.276 149.745C370.333 149.282 369.328 149.079 368.263 149.136C367.688 149.166 367.411 149.384 367.433 149.789C367.446 150.044 367.565 150.263 367.788 150.443C368.031 150.601 368.459 150.802 369.07 151.048C369.68 151.272 370.183 151.48 370.577 151.672C370.993 151.864 371.457 152.138 371.967 152.496C373.033 153.251 373.6 154.278 373.669 155.578C373.76 157.282 373.269 158.697 372.196 159.822C371.123 160.926 369.446 161.538 367.167 161.66C365.654 161.74 364.267 161.558 363.004 161.112C361.741 160.667 361.086 159.996 361.038 159.102C361.007 158.505 361.112 157.869 361.354 157.194C361.617 156.518 361.892 156.065 362.179 155.836ZM92.74 197.126C92.7298 196.935 93.3105 196.808 94.4822 196.745C97.1238 196.605 98.4278 196.621 98.3943 196.794L96.0888 212.49C96.043 212.835 94.8697 213.068 92.569 213.19C90.2682 213.313 89.0769 213.205 88.9948 212.868L87.3039 205.779L86.055 213.024C86.0081 213.347 84.7916 213.572 82.4057 213.699C80.041 213.825 78.8165 213.697 78.7322 213.317L75.0605 197.907C74.9898 197.782 75.9024 197.67 77.7984 197.569C79.6742 197.49 80.6138 197.483 80.6172 197.547L82.6616 208.27L84.7462 197.456C84.782 197.325 85.4816 197.224 86.845 197.152C88.2084 197.079 88.9148 197.106 88.9642 197.231L92.1454 207.637L92.74 197.126ZM106.863 212.045C106.872 212.216 105.897 212.353 103.937 212.457C101.998 212.561 101.025 212.538 101.017 212.388L100.182 196.699C100.174 196.549 101.14 196.423 103.078 196.32C105.038 196.216 106.021 196.228 106.028 196.356L106.863 212.045ZM105.928 194.47C105.936 194.619 104.96 194.746 103 194.85C101.061 194.953 100.089 194.941 100.082 194.813L99.8372 190.212C99.8259 189.999 100.79 189.841 102.728 189.738C104.688 189.633 105.671 189.645 105.678 189.773L105.928 194.47ZM117.102 211.501C117.116 211.756 116.228 211.932 114.439 212.027C112.304 212.055 111.231 211.973 111.221 211.782L110.619 200.47L108.99 200.556C108.564 200.579 108.311 199.855 108.233 198.385C108.213 198.002 108.22 197.531 108.254 196.974C108.31 196.416 108.455 196.13 108.689 196.118L110.383 196.028L110.233 193.216C110.211 192.79 111.094 192.529 112.884 192.434C114.694 192.338 115.609 192.46 115.627 192.801L115.736 194.846L115.815 195.739L118.532 195.594C118.894 195.575 119.114 196.311 119.194 197.802C119.273 199.294 119.132 200.049 118.769 200.068L116.501 200.189L117.102 211.501ZM126.852 210.95C126.862 211.142 125.973 211.285 124.183 211.38C122.415 211.475 121.523 211.372 121.507 211.074L120.343 189.185C120.335 189.036 120.659 188.912 121.316 188.813C121.973 188.714 122.526 188.652 122.973 188.629C124.763 188.533 125.667 188.678 125.688 189.061L126.028 195.452C127.201 195.026 128.097 194.797 128.715 194.764C130.334 194.678 131.636 195.047 132.619 195.87C133.602 196.673 134.156 198.246 134.28 200.589L134.807 210.495C134.817 210.687 133.992 210.827 132.33 210.915C130.452 210.951 129.509 210.894 129.501 210.745L129.001 201.35C128.946 200.307 128.577 199.803 127.895 199.839C127.427 199.864 126.895 200.116 126.301 200.597L126.852 210.95ZM159.302 193.586C159.292 193.394 159.873 193.267 161.044 193.205C163.686 193.064 164.99 193.08 164.956 193.253L162.651 208.95C162.605 209.294 161.432 209.527 159.131 209.65C156.83 209.772 155.639 209.665 155.557 209.327L153.866 202.239L152.617 209.483C152.57 209.806 151.354 210.031 148.968 210.158C146.603 210.284 145.379 210.157 145.294 209.777L141.623 194.366C141.552 194.242 142.465 194.129 144.361 194.028C146.236 193.95 147.176 193.943 147.179 194.006L149.224 204.729L151.308 193.915C151.344 193.785 152.044 193.684 153.407 193.611C154.771 193.539 155.477 193.565 155.526 193.691L158.708 204.096L159.302 193.586ZM172.912 208.5C172.922 208.692 172.033 208.835 170.243 208.93C168.475 209.024 167.583 208.922 167.567 208.624L166.403 186.735C166.395 186.586 166.719 186.462 167.376 186.363C168.033 186.264 168.586 186.202 169.033 186.179C170.822 186.083 171.727 186.228 171.748 186.611L172.088 193.002C173.261 192.576 174.157 192.347 174.775 192.314C176.394 192.228 177.695 192.597 178.679 193.42C179.662 194.223 180.216 195.796 180.34 198.139L180.867 208.045C180.877 208.237 180.052 208.377 178.39 208.465C176.512 208.501 175.569 208.444 175.561 208.295L175.061 198.9C175.006 197.857 174.637 197.353 173.955 197.389C173.487 197.414 172.955 197.666 172.361 198.147L172.912 208.5ZM184.992 196.449C184.339 195.416 183.995 194.569 183.96 193.909C183.924 193.227 184.081 192.781 184.433 192.57C185.619 191.972 187.267 191.618 189.376 191.506C191.506 191.392 193.035 191.813 193.961 192.768C194.887 193.701 195.401 195.137 195.504 197.076L195.773 202.125L196.859 202.067C197.222 202.048 197.51 202.246 197.724 202.662C197.96 203.077 198.098 203.657 198.137 204.402C198.177 205.148 198.024 205.893 197.679 206.638C197.356 207.381 196.874 207.77 196.235 207.804C195.085 207.865 194.142 207.606 193.406 207.025C193.073 206.787 192.811 206.491 192.622 206.138C191.707 207.426 190.217 208.124 188.151 208.234C186.596 208.317 185.256 207.833 184.132 206.782C183.008 205.731 182.405 204.449 182.325 202.936C182.14 199.464 184.125 197.617 188.279 197.396L190.037 197.303L190.02 196.983C189.99 196.429 189.876 196.083 189.676 195.944C189.497 195.783 189.077 195.719 188.416 195.755C187.607 195.798 186.465 196.029 184.992 196.449ZM187.861 202.193C187.886 202.662 188.033 203.017 188.303 203.259C188.571 203.48 188.897 203.58 189.28 203.56C189.685 203.538 190.038 203.359 190.341 203.023L190.21 200.562L189.315 200.61C188.293 200.664 187.808 201.192 187.861 202.193ZM207.443 206.695C207.457 206.951 206.569 207.126 204.78 207.222C202.645 207.25 201.572 207.168 201.562 206.976L200.96 195.664L199.331 195.751C198.905 195.773 198.652 195.05 198.574 193.58C198.554 193.196 198.561 192.726 198.595 192.169C198.651 191.61 198.796 191.325 199.03 191.312L200.724 191.222L200.574 188.41C200.552 187.984 201.435 187.724 203.225 187.628C205.035 187.532 205.95 187.654 205.968 187.995L206.077 190.04L206.156 190.933L208.873 190.789C209.235 190.77 209.455 191.506 209.535 192.997C209.614 194.488 209.473 195.243 209.111 195.263L206.842 195.383L207.443 206.695ZM215.932 190.574C215.919 190.339 216.882 190.171 218.821 190.068C220.781 189.963 221.798 190.016 221.873 190.226L224.575 197.645L226.376 189.922C226.452 189.747 227.108 189.627 228.343 189.561C231.177 189.41 232.537 189.477 232.424 189.761L226.051 211.538C226.037 211.667 225.454 211.762 224.304 211.823C223.175 211.883 222.118 211.897 221.134 211.863C220.15 211.852 219.677 211.791 219.714 211.683L222.137 204.824L215.932 190.574ZM236.328 203.46C234.929 202.061 234.161 200.061 234.023 197.462C233.884 194.863 234.436 192.794 235.679 191.254C236.943 189.712 238.704 188.882 240.962 188.762C243.22 188.641 245.049 189.281 246.448 190.681C247.847 192.081 248.615 194.08 248.754 196.679C248.892 199.278 248.34 201.347 247.097 202.888C245.855 204.428 244.104 205.258 241.846 205.378C239.588 205.498 237.749 204.859 236.328 203.46ZM241.246 194.098C240.053 194.162 239.509 195.173 239.613 197.133C239.717 199.093 240.366 200.041 241.559 199.978C242.773 199.913 243.328 198.901 243.224 196.941C243.12 194.981 242.46 194.033 241.246 194.098ZM250.438 188.77C250.426 188.536 251.336 188.37 253.168 188.273C255 188.175 255.922 188.244 255.934 188.478L256.431 197.809C256.487 198.874 256.857 199.388 257.538 199.352C258.05 199.325 258.613 199.071 259.228 198.589L258.683 188.332C258.671 188.119 259.571 187.964 261.382 187.868C263.193 187.771 264.104 187.83 264.115 188.043L264.672 198.524L265.503 198.48C266.228 198.441 266.627 199.114 266.7 200.499C266.738 201.202 266.626 201.924 266.367 202.664C265.991 203.624 265.44 204.123 264.716 204.162C263.289 204.238 262.203 203.708 261.459 202.572L261.429 202.606C260.19 203.826 258.826 204.475 257.334 204.554C255.268 204.664 253.718 204.234 252.683 203.263C251.648 202.272 251.067 200.583 250.94 198.197L250.438 188.77ZM276.238 191.596C275.585 190.562 275.241 189.715 275.206 189.055C275.17 188.373 275.327 187.927 275.679 187.716C276.865 187.119 278.513 186.764 280.622 186.652C282.752 186.539 284.281 186.959 285.207 187.914C286.133 188.848 286.647 190.284 286.75 192.222L287.019 197.271L288.105 197.213C288.468 197.194 288.756 197.392 288.97 197.808C289.206 198.223 289.344 198.803 289.383 199.549C289.423 200.294 289.27 201.04 288.925 201.784C288.602 202.528 288.12 202.917 287.481 202.951C286.331 203.012 285.388 202.752 284.652 202.172C284.319 201.933 284.057 201.637 283.868 201.284C282.953 202.572 281.463 203.271 279.397 203.381C277.842 203.463 276.502 202.979 275.378 201.928C274.254 200.877 273.652 199.595 273.571 198.083C273.386 194.61 275.371 192.764 279.525 192.543L281.283 192.449L281.266 192.13C281.236 191.576 281.122 191.229 280.922 191.09C280.743 190.929 280.323 190.866 279.662 190.901C278.853 190.944 277.711 191.176 276.238 191.596ZM279.107 197.34C279.132 197.808 279.279 198.164 279.549 198.406C279.817 198.626 280.143 198.727 280.526 198.706C280.931 198.685 281.284 198.506 281.587 198.169L281.456 195.708L280.561 195.756C279.539 195.81 279.054 196.338 279.107 197.34ZM297.152 201.859C297.162 202.051 296.081 202.205 293.908 202.32C292.203 202.39 291.346 202.35 291.338 202.201L290.181 180.44C290.164 180.12 291.188 179.905 293.255 179.795C295.069 179.763 295.98 179.821 295.988 179.97L297.152 201.859ZM307.053 201.557C307.061 201.706 306.095 201.832 304.157 201.935C302.216 201.996 301.242 201.962 301.235 201.835L300.671 191.226L299.808 191.271C299.467 191.29 299.18 191.102 298.945 190.708C298.731 190.293 298.607 189.776 298.574 189.158C298.452 186.857 299.072 185.671 300.436 185.598C301.394 185.547 302.209 185.803 302.88 186.365C303.55 186.907 303.904 187.55 303.944 188.296C304.345 187.398 304.905 186.674 305.623 186.123C306.362 185.55 307.125 185.242 307.913 185.2C309.149 185.135 309.911 185.414 310.201 186.04C310.274 186.207 310.32 186.461 310.338 186.802C310.355 187.121 310.279 187.713 310.112 188.576C309.965 189.439 309.796 190.067 309.603 190.462C309.41 190.857 309.293 191.055 309.25 191.058C309.208 191.06 309.001 190.996 308.631 190.866C308.281 190.714 307.968 190.645 307.691 190.66C306.881 190.703 306.511 191.364 306.579 192.642L307.053 201.557ZM324.759 199.782C323.459 200.642 321.754 201.128 319.645 201.24C317.536 201.352 315.719 200.733 314.195 199.383C312.669 198.011 311.839 196.058 311.704 193.523C311.568 190.966 312.151 188.874 313.453 187.245C314.776 185.615 316.503 184.743 318.634 184.63C320.764 184.517 322.433 184.973 323.641 185.998C324.871 187.022 325.527 188.312 325.61 189.867C325.793 193.318 323.904 195.149 319.941 195.36L317.737 195.477C317.77 196.116 317.965 196.554 318.319 196.792C318.694 197.007 319.222 197.096 319.904 197.06C321.395 196.981 322.793 196.565 324.099 195.812C324.119 195.789 324.223 195.933 324.411 196.244C324.971 197.132 325.268 197.896 325.302 198.536C325.334 199.153 325.154 199.569 324.759 199.782ZM320.274 190.76C320.226 189.865 319.765 189.441 318.892 189.487C318.487 189.509 318.143 189.655 317.858 189.927C317.593 190.176 317.474 190.535 317.499 191.003L317.551 191.994L319.277 191.902C319.98 191.865 320.312 191.484 320.274 190.76ZM329.663 188.754C329.01 187.721 328.665 186.874 328.63 186.213C328.594 185.532 328.752 185.085 329.104 184.874C330.29 184.277 331.937 183.922 334.046 183.81C336.177 183.697 337.705 184.118 338.632 185.072C339.557 186.006 340.072 187.442 340.175 189.381L340.443 194.429L341.53 194.372C341.892 194.352 342.18 194.551 342.395 194.967C342.63 195.381 342.768 195.961 342.808 196.707C342.847 197.453 342.695 198.198 342.35 198.943C342.026 199.686 341.545 200.075 340.906 200.109C339.755 200.17 338.812 199.911 338.076 199.33C337.743 199.091 337.482 198.796 337.292 198.443C336.378 199.73 334.888 200.429 332.821 200.539C331.266 200.622 329.926 200.137 328.802 199.086C327.678 198.035 327.076 196.753 326.996 195.241C326.811 191.768 328.796 189.922 332.95 189.701L334.707 189.607L334.69 189.288C334.661 188.734 334.546 188.388 334.346 188.249C334.167 188.087 333.747 188.024 333.087 188.059C332.277 188.102 331.136 188.334 329.663 188.754ZM332.532 194.498C332.557 194.966 332.704 195.322 332.973 195.564C333.241 195.785 333.567 195.885 333.95 195.864C334.355 195.843 334.709 195.664 335.011 195.327L334.881 192.867L333.986 192.914C332.963 192.969 332.479 193.497 332.532 194.498ZM351.679 176.976C351.662 176.656 352.495 176.452 354.178 176.362C354.754 176.332 355.416 176.339 356.166 176.385C356.937 176.408 357.325 176.483 357.332 176.611L358.228 193.451L359.346 193.392C359.879 193.364 360.256 193.824 360.477 194.774C360.535 195.048 360.576 195.431 360.602 195.921C360.627 196.389 360.509 196.973 360.247 197.67C359.871 198.63 359.214 199.135 358.276 199.185C357.573 199.222 356.938 199.117 356.369 198.87C355.822 198.621 355.444 198.353 355.237 198.065L354.927 197.665C353.815 198.856 352.375 199.499 350.607 199.593C348.839 199.687 347.287 199.032 345.952 197.629C344.617 196.226 343.88 194.215 343.741 191.594C343.6 188.953 344.152 186.883 345.397 185.386C346.641 183.867 348.253 183.055 350.235 182.949C350.81 182.919 351.399 182.951 352.002 183.047L351.679 176.976ZM351.21 188.025C350.017 188.088 349.477 189.196 349.592 191.347C349.65 192.434 349.862 193.213 350.229 193.685C350.595 194.135 350.98 194.35 351.385 194.328C351.811 194.305 352.206 194.103 352.57 193.72L352.281 188.288C351.908 188.094 351.551 188.006 351.21 188.025ZM360.883 182.863C360.87 182.629 361.834 182.46 363.772 182.357C365.732 182.253 366.75 182.306 366.825 182.515L369.527 189.934L371.327 182.212C371.403 182.037 372.059 181.916 373.295 181.851C376.128 181.7 377.488 181.767 377.375 182.05L371.003 203.828C370.988 203.956 370.406 204.052 369.255 204.113C368.126 204.173 367.07 204.186 366.085 204.153C365.102 204.141 364.629 204.081 364.665 203.972L367.089 197.114L360.883 182.863ZM77.7859 228.661C77.7678 228.32 78.728 228.098 80.6666 227.995C82.4808 227.963 83.3935 228.053 83.4049 228.266L84.0576 240.537L86.91 234.521C87.0422 234.193 87.939 233.986 89.6007 233.897C91.2623 233.809 92.3332 233.859 92.8132 234.047L89.0194 241.042L94.2902 249.766C94.3374 249.849 93.936 249.935 93.0862 250.023C92.2587 250.131 91.5681 250.2 91.0142 250.229C88.9691 250.338 87.8669 250.3 87.7075 250.117L84.1667 243.191L84.5423 250.253C84.557 250.53 83.6271 250.718 81.7524 250.818C79.899 250.917 78.9655 250.838 78.9519 250.582L77.7859 228.661ZM102.606 249.324C102.614 249.473 101.851 249.589 100.318 249.67C98.1839 249.72 97.1125 249.659 97.1035 249.489L96.5527 239.135L95.7219 239.179C95.168 239.209 94.7809 238.76 94.5607 237.831C94.5033 237.557 94.4673 237.281 94.4526 237.004C94.4174 236.343 94.5101 235.676 94.7306 235.002C95.0642 234.044 95.6358 233.544 96.4453 233.501C97.2548 233.458 97.9893 233.611 98.6488 233.961C99.3083 234.31 99.7548 234.671 99.9882 235.043C101.269 233.821 102.836 233.161 104.69 233.063C106.543 232.964 107.912 233.393 108.796 234.35C109.68 235.307 110.183 236.926 110.304 239.205L110.814 248.791C110.827 249.047 109.918 249.224 108.086 249.321C106.275 249.417 105.363 249.338 105.349 249.082L104.858 239.847C104.802 238.782 104.4 238.269 103.655 238.309C103.442 238.32 103.149 238.432 102.775 238.644C102.401 238.835 102.163 238.976 102.061 239.067L102.606 249.324ZM114.812 246.976C113.413 245.577 112.644 243.577 112.506 240.978C112.368 238.379 112.92 236.31 114.163 234.77C115.427 233.228 117.188 232.398 119.446 232.278C121.704 232.157 123.533 232.797 124.931 234.197C126.33 235.597 127.099 237.596 127.237 240.195C127.376 242.794 126.823 244.863 125.581 246.404C124.338 247.944 122.588 248.774 120.33 248.894C118.072 249.014 116.232 248.375 114.812 246.976ZM119.73 237.614C118.537 237.678 117.992 238.689 118.097 240.649C118.201 242.609 118.849 243.557 120.042 243.494C121.257 243.429 121.812 242.417 121.707 240.457C121.603 238.497 120.944 237.549 119.73 237.614ZM145.665 231.364C145.654 231.172 146.235 231.045 147.407 230.983C150.048 230.842 151.352 230.858 151.319 231.031L149.013 246.727C148.968 247.072 147.794 247.305 145.494 247.427C143.193 247.55 142.001 247.442 141.919 247.105L140.228 240.017L138.98 247.261C138.933 247.584 137.716 247.809 135.33 247.936C132.966 248.062 131.741 247.935 131.657 247.555L127.985 232.144C127.914 232.019 128.827 231.907 130.723 231.806C132.599 231.728 133.538 231.72 133.542 231.784L135.586 242.507L137.671 231.693C137.707 231.563 138.406 231.461 139.77 231.389C141.133 231.316 141.839 231.343 141.889 231.468L145.07 241.874L145.665 231.364Z" fill="#5B4CCC"/>
</g>
<defs>
<clipPath id="clip0_20_29">
<rect width="406" height="272.473" fill="white" transform="matrix(-0.998588 0.0531169 0.0531169 0.998588 405.427 0)"/>
</clipPath>
</defs>
</svg>
