<svg width="376" height="249" viewBox="0 0 376 249" fill="none" xmlns="http://www.w3.org/2000/svg">
<g clip-path="url(#clip0_19_12)">
<path d="M343.78 124.878C323.175 101.341 291.794 91.8483 261.855 88.6977C243.105 86.7244 224.228 86.8781 205.403 86.4224C203.151 86.3739 200.899 86.3117 198.649 86.236C196.125 86.1515 195.229 85.9326 193.533 84.0607C190.458 80.7117 187.36 77.3885 184.24 74.091C177.992 67.4915 171.65 60.9886 165.212 54.5823C150.434 39.8739 135.169 25.7022 119.419 12.0673L123.393 9.37433C127.228 34.0376 131.066 58.7008 134.908 83.3646C135.134 84.8445 133.936 86.8633 132.205 86.5061C109.681 81.8539 87.789 72.4777 64.4686 73.11C55.0922 73.3633 45.5415 75.25 37.1989 79.769C28.2667 84.6096 21.7176 92.5126 17.9052 101.997C13.9129 111.93 12.5926 122.71 11.6797 133.32C10.7577 144.063 9.96466 154.932 10.669 165.711C11.3545 176.26 13.6132 186.864 19.0284 196.004C23.77 204.006 30.9093 210.234 38.9824 214.543C55.8641 223.472 75.9605 224.79 94.6491 225.137C120.062 225.605 145.505 225.38 170.898 225.472L249.156 225.78C261.367 225.831 273.586 226.029 285.795 225.864C295.875 225.723 305.995 225.164 315.887 223.062C334.51 219.081 351.191 208.414 357.579 189.42C363.468 171.938 360.289 151.964 351.548 136.086C349.335 132.087 346.724 128.331 343.757 124.877C341.579 122.33 345.462 118.884 347.64 121.425C360.115 136.017 366.83 155.87 365.532 175.229C364.21 195.03 353.733 212.351 336.214 221.502C317.405 231.322 295.163 231.194 274.524 231.111L191.129 230.785L108.296 230.462C87.656 230.384 66.2421 230.476 46.488 223.469C37.5285 220.302 29.1658 215.53 22.4087 208.744C14.9862 201.289 10.2063 191.662 7.7518 181.406C5.13562 170.491 4.98746 159.044 5.50829 147.877C6.02912 136.71 6.81932 125.292 9.02759 114.275C11.2106 103.372 15.1889 92.8024 22.7209 84.5288C29.2124 77.3863 37.8989 72.7856 47.0599 70.3063C69.1096 64.3416 91.3903 70.3776 112.711 76.2723C119.291 78.0923 125.878 79.8895 132.562 81.2731L129.86 84.3971C126.002 59.7441 122.163 35.0865 118.344 10.4245C118.029 8.39581 120.494 6.14834 122.318 7.73159C149.098 30.918 174.543 55.6537 198.526 81.8166L196.763 80.9262C239.152 82.4696 284.028 79.4974 322.44 101.093C331.919 106.371 340.446 113.246 347.662 121.426C349.865 123.945 345.982 127.391 343.78 124.878Z" fill="#FFFAEF"/>
<path d="M31.9118 182.668C36.9576 193.992 46.9204 202.254 58.844 205.003C62.0612 205.76 60.3365 210.701 57.1303 209.951C43.9152 206.769 32.9018 197.549 27.2931 184.973C25.9312 181.904 30.5294 179.563 31.9082 182.639L31.9118 182.668Z" fill="#FFFAEF"/>
<path d="M313.292 117.331C329.92 123.568 342.825 137.188 348.343 154.323C349.381 157.521 344.322 158.535 343.294 155.373C338.192 140.022 326.533 127.859 311.578 122.284C308.474 121.133 310.165 116.178 313.292 117.337L313.292 117.331Z" fill="#FFFAEF"/>
<path d="M54.4239 139.571L55.7305 120.415C55.7668 119.883 55.9228 119.477 56.1985 119.196C56.497 118.896 56.8591 118.76 57.2847 118.789L62.6163 119.153C66.0005 119.384 68.5071 120.41 70.1362 122.232C71.7867 124.055 72.487 126.797 72.2373 130.458C71.7031 138.29 68.0944 141.979 61.4112 141.523L55.9519 141.15C54.8665 141.076 54.3571 140.55 54.4239 139.571ZM61.5641 125.175L60.913 134.721C60.8825 135.168 60.8948 135.458 60.9499 135.59C61.0065 135.7 61.1945 135.767 61.5137 135.788C62.6843 135.868 63.5974 135.492 64.2528 134.66C64.9296 133.83 65.3369 132.403 65.4748 130.381C65.6142 128.338 65.3857 126.986 64.7893 126.325C64.2141 125.666 63.2455 125.29 61.8833 125.197L61.5641 125.175ZM79.6926 142.577C79.681 142.748 78.6961 142.766 76.738 142.632C74.8012 142.5 73.8378 142.36 73.848 142.211L74.9172 126.535C74.9274 126.386 75.9009 126.378 77.8377 126.51C79.7958 126.643 80.7705 126.774 80.7618 126.902L79.6926 142.577ZM80.8903 125.018C80.8802 125.167 79.896 125.175 77.9379 125.041C76.0011 124.909 75.037 124.779 75.0457 124.652L75.3593 120.054C75.3738 119.841 76.3495 119.801 78.2863 119.933C80.2444 120.067 81.2191 120.197 81.2104 120.325L80.8903 125.018ZM84.6111 131.334L83.0468 131.227C82.7275 131.205 82.6158 130.492 82.7116 129.087C82.8089 127.661 83.0171 126.959 83.3364 126.981L84.9008 127.088L84.9487 126.385C85.1026 124.129 85.6768 122.608 86.6713 121.82C87.6886 121.013 89.0486 120.667 90.7514 120.783C92.4541 120.899 93.9335 121.31 95.1897 122.016C95.3557 122.092 95.4248 122.332 95.3972 122.736C95.3711 123.119 95.1474 123.735 94.726 124.583C94.3047 125.431 93.9619 125.91 93.6978 126.02C93.0047 125.524 92.275 125.249 91.5088 125.197C90.6787 125.14 90.2259 125.666 90.1504 126.772L90.1047 127.443L92.7545 127.624C93.1376 127.65 93.2827 128.344 93.1898 129.706C93.0882 131.196 92.7926 131.924 92.3031 131.891L90.2598 131.751L89.4889 143.053C89.4715 143.308 88.5157 143.372 86.6214 143.242C84.7484 143.115 83.8207 142.923 83.8381 142.668L84.6111 131.334ZM96.5833 132.151L95.019 132.044C94.6997 132.022 94.588 131.309 94.6838 129.904C94.7811 128.478 94.9893 127.776 95.3086 127.798L96.8729 127.904L96.9209 127.202C97.0747 124.946 97.649 123.424 98.6435 122.637C99.6608 121.829 101.021 121.484 102.724 121.6C104.426 121.716 105.906 122.127 107.162 122.833C107.328 122.908 107.397 123.148 107.369 123.553C107.343 123.936 107.12 124.551 106.698 125.399C106.277 126.247 105.934 126.726 105.67 126.837C104.977 126.34 104.247 126.066 103.481 126.014C102.651 125.957 102.198 126.482 102.123 127.589L102.077 128.259L104.727 128.44C105.11 128.466 105.255 129.16 105.162 130.523C105.06 132.012 104.765 132.741 104.275 132.707L102.232 132.568L101.461 143.87C101.444 144.125 100.488 144.188 98.5936 144.059C96.7206 143.931 95.7928 143.74 95.8103 143.484L96.5833 132.151ZM112.367 144.806C112.355 144.976 111.37 144.995 109.412 144.861C107.475 144.729 106.512 144.588 106.522 144.439L107.591 128.764C107.601 128.615 108.575 128.606 110.512 128.739C112.47 128.872 113.445 129.003 113.436 129.13L112.367 144.806ZM113.564 127.247C113.554 127.396 112.57 127.403 110.612 127.27C108.675 127.138 107.711 127.008 107.72 126.88L108.033 122.283C108.048 122.07 109.024 122.03 110.96 122.162C112.919 122.295 113.893 122.426 113.885 122.554L113.564 127.247ZM121.017 137.634C120.875 139.72 121.591 140.816 123.166 140.924C124.188 140.994 125.053 140.849 125.761 140.492C126.081 140.513 126.298 141.084 126.414 142.204C126.553 143.304 126.609 144.056 126.581 144.46C126.555 144.844 126.484 145.095 126.369 145.216C125.193 145.841 123.626 146.087 121.668 145.954C119.71 145.82 118.089 144.982 116.804 143.441C115.542 141.879 114.997 139.843 115.168 137.331C115.341 134.798 116.15 132.801 117.597 131.339C119.065 129.878 120.917 129.224 123.152 129.376C125.408 129.53 126.935 130.179 127.734 131.324C127.909 131.572 127.981 131.929 127.949 132.398C127.919 132.845 127.796 133.392 127.581 134.04C127.105 135.376 126.551 136.13 125.919 136.301C125.832 136.316 125.704 136.318 125.534 136.306C125.385 136.296 125.202 136.155 124.985 135.884C124.212 134.997 123.57 134.537 123.059 134.502C122.569 134.468 122.126 134.695 121.729 135.181C121.333 135.667 121.095 136.485 121.017 137.634ZM129.688 130.335C129.704 130.101 130.627 130.046 132.458 130.171C134.288 130.296 135.195 130.476 135.179 130.71L134.543 140.032C134.471 141.096 134.775 141.652 135.456 141.698C135.967 141.733 136.557 141.549 137.226 141.145L137.925 130.897C137.939 130.684 138.851 130.639 140.66 130.763C142.47 130.886 143.367 131.054 143.352 131.267L142.638 141.739L143.468 141.796C144.192 141.845 144.506 142.561 144.412 143.945C144.364 144.647 144.167 145.35 143.819 146.053C143.33 146.961 142.723 147.39 141.999 147.34C140.573 147.243 139.56 146.586 138.959 145.369L138.924 145.399C137.548 146.459 136.114 146.939 134.625 146.837C132.56 146.697 131.073 146.082 130.164 144.994C129.256 143.884 128.883 142.137 129.046 139.753L129.688 130.335ZM151.966 147.443C151.953 147.634 150.861 147.656 148.69 147.508C146.989 147.371 146.143 147.227 146.153 147.078L147.636 125.337C147.658 125.018 148.701 124.929 150.766 125.069C152.57 125.257 153.468 125.425 153.457 125.574L151.966 147.443ZM162.192 148.205C162.175 148.46 161.272 148.527 159.485 148.405C157.362 148.174 156.307 147.964 156.32 147.772L157.091 136.47L155.463 136.359C155.037 136.33 154.874 135.581 154.975 134.113C155.001 133.73 155.065 133.264 155.166 132.715C155.289 132.167 155.468 131.901 155.702 131.917L157.394 132.033L157.585 129.223C157.614 128.797 158.523 128.646 160.311 128.767C162.12 128.891 163.013 129.123 162.99 129.463L162.85 131.507L162.821 132.403L165.535 132.588C165.897 132.613 166.027 133.37 165.925 134.86C165.824 136.35 165.592 137.082 165.23 137.057L162.963 136.903L162.192 148.205ZM173.67 143.407C175.323 144.567 176.649 145.181 177.65 145.25C178.288 145.293 178.623 145.091 178.653 144.645C178.675 144.325 178.15 143.872 177.078 143.286C174.492 142.019 173.283 140.151 173.451 137.682C173.558 136.107 174.215 134.944 175.421 134.192C176.627 133.441 178.028 133.119 179.624 133.228C181.242 133.338 182.593 133.602 183.676 134.018C184.781 134.435 185.315 134.921 185.277 135.474C185.245 135.942 184.969 136.544 184.448 137.278C183.949 138.014 183.612 138.407 183.437 138.46C182.557 137.886 181.585 137.564 180.52 137.491C179.946 137.452 179.645 137.634 179.617 138.039C179.6 138.294 179.691 138.525 179.891 138.731C180.113 138.917 180.513 139.169 181.09 139.486C181.669 139.782 182.142 140.05 182.511 140.289C182.901 140.529 183.327 140.858 183.791 141.274C184.757 142.153 185.196 143.241 185.107 144.539C184.991 146.242 184.333 147.587 183.132 148.574C181.933 149.54 180.195 149.946 177.917 149.79C176.406 149.687 175.051 149.338 173.851 148.743C172.652 148.148 172.082 147.404 172.143 146.51C172.184 145.914 172.365 145.295 172.687 144.655C173.03 144.015 173.358 143.599 173.67 143.407ZM187.897 134.306C187.913 134.071 188.836 134.017 190.666 134.142C192.497 134.267 193.404 134.446 193.388 134.68L192.752 144.002C192.679 145.067 192.984 145.622 193.665 145.668C194.176 145.703 194.765 145.519 195.434 145.116L196.133 134.867C196.148 134.655 197.06 134.61 198.869 134.733C200.678 134.857 201.575 135.025 201.561 135.238L200.847 145.709L201.677 145.766C202.4 145.815 202.715 146.532 202.621 147.915C202.573 148.617 202.375 149.32 202.028 150.024C201.538 150.931 200.932 151.36 200.208 151.311C198.782 151.214 197.768 150.556 197.167 149.339L197.133 149.369C195.756 150.43 194.323 150.909 192.833 150.808C190.769 150.667 189.282 150.052 188.372 148.964C187.464 147.854 187.092 146.107 187.254 143.724L187.897 134.306ZM206.024 129.031C206.041 128.776 206.965 128.71 208.796 128.835C210.647 128.961 211.564 129.163 211.545 129.44L211.122 135.633C212.049 135.525 212.704 135.484 213.087 135.511C217.557 135.815 219.617 138.533 219.267 143.662C219.072 146.514 218.23 148.67 216.741 150.129C215.274 151.569 213.274 152.202 210.742 152.029C208.23 151.858 206.183 151.152 204.6 149.91L206.024 129.031ZM211.854 140.43C211.492 140.405 211.133 140.499 210.776 140.709L210.36 146.807C210.649 146.955 210.954 147.04 211.273 147.062C211.613 147.085 211.963 146.981 212.321 146.749C212.946 146.363 213.311 145.394 213.417 143.84C213.567 141.648 213.046 140.511 211.854 140.43ZM221.009 151.286L222.013 136.568C222.022 136.441 222.984 136.442 224.899 136.573C226.836 136.705 227.801 136.824 227.794 136.931L226.633 153.947C226.526 155.522 225.781 156.722 224.399 157.547C223.037 158.395 221.376 158.753 219.418 158.619C216.673 158.432 215.365 157.38 215.496 155.465C215.539 154.826 215.682 154.301 215.924 153.89C216.114 153.925 216.379 153.953 216.72 153.977C218.274 154.083 219.355 153.91 219.963 153.46C220.592 153.011 220.941 152.287 221.009 151.286ZM222.141 134.685L222.455 130.088C222.47 129.875 223.435 129.834 225.35 129.964C227.287 130.096 228.251 130.226 228.242 130.354L227.922 135.047C227.912 135.196 226.939 135.205 225.002 135.072C223.086 134.942 222.133 134.813 222.141 134.685ZM241.727 152.956C240.332 153.652 238.581 153.928 236.474 153.785C234.367 153.641 232.639 152.807 231.289 151.282C229.94 149.736 229.352 147.696 229.525 145.164C229.699 142.61 230.531 140.603 232.02 139.143C233.531 137.686 235.351 137.029 237.479 137.174C239.607 137.32 241.209 137.974 242.285 139.138C243.381 140.303 243.876 141.663 243.77 143.217C243.535 146.665 241.438 148.253 237.479 147.983L235.277 147.833C235.233 148.472 235.373 148.93 235.696 149.209C236.042 149.468 236.555 149.62 237.236 149.667C238.726 149.768 240.165 149.524 241.552 148.935C241.575 148.915 241.661 149.071 241.809 149.401C242.257 150.351 242.46 151.146 242.416 151.784C242.374 152.401 242.144 152.792 241.727 152.956ZM238.366 143.457C238.427 142.563 238.021 142.087 237.148 142.027C236.744 142 236.384 142.103 236.068 142.338C235.776 142.554 235.613 142.895 235.581 143.364L235.514 144.353L237.238 144.471C237.94 144.519 238.316 144.181 238.366 143.457ZM250.903 146.493C250.76 148.579 251.477 149.676 253.052 149.783C254.073 149.853 254.938 149.709 255.647 149.351C255.966 149.373 256.184 149.944 256.3 151.063C256.439 152.163 256.494 152.916 256.467 153.32C256.441 153.703 256.37 153.955 256.255 154.075C255.079 154.701 253.512 154.947 251.554 154.813C249.596 154.68 247.974 153.842 246.69 152.3C245.428 150.739 244.882 148.702 245.054 146.191C245.226 143.658 246.036 141.66 247.483 140.198C248.951 138.737 250.803 138.083 253.037 138.236C255.294 138.389 256.821 139.039 257.619 140.184C257.795 140.431 257.867 140.789 257.835 141.257C257.804 141.704 257.682 142.252 257.466 142.9C256.99 144.236 256.436 144.989 255.805 145.16C255.718 145.175 255.59 145.177 255.419 145.166C255.27 145.156 255.087 145.015 254.871 144.743C254.097 143.857 253.455 143.396 252.944 143.361C252.455 143.328 252.012 143.554 251.615 144.04C251.218 144.526 250.981 145.344 250.903 146.493ZM266.014 155.286C265.996 155.542 265.094 155.608 263.306 155.486C261.183 155.256 260.128 155.045 260.142 154.854L260.912 143.552L259.284 143.441C258.858 143.412 258.696 142.663 258.796 141.194C258.822 140.811 258.886 140.345 258.988 139.796C259.11 139.249 259.289 138.983 259.523 138.999L261.215 139.114L261.407 136.305C261.436 135.879 262.344 135.727 264.132 135.849C265.941 135.972 266.834 136.204 266.811 136.545L266.672 138.588L266.642 139.484L269.356 139.669C269.718 139.694 269.848 140.451 269.746 141.941C269.645 143.431 269.413 144.164 269.051 144.139L266.785 143.984L266.014 155.286ZM276.653 149.854C274.972 149.739 274.145 149.479 274.173 149.075L274.255 147.862C274.321 146.904 275.202 145.735 276.9 144.354C277.534 143.841 278.119 143.25 278.657 142.581C279.216 141.914 279.515 141.293 279.554 140.718C279.626 139.654 279.045 139.079 277.811 138.995C276.598 138.912 275.346 139.233 274.057 139.958C273.303 139.094 272.801 138.14 272.552 137.097C272.447 136.748 272.404 136.445 272.421 136.19C272.44 135.913 272.511 135.662 272.633 135.435C272.841 134.893 273.664 134.425 275.102 134.031C276.562 133.639 278.079 133.497 279.654 133.604C282.038 133.767 283.791 134.4 284.913 135.502C286.035 136.605 286.536 138.04 286.416 139.807C286.36 140.615 286.104 141.4 285.646 142.16C285.21 142.9 284.685 143.548 284.07 144.105C283.477 144.642 282.887 145.147 282.298 145.62C280.87 146.806 280.134 147.728 280.089 148.388L280.024 149.346C280.006 149.601 279.599 149.766 278.803 149.84C278.008 149.893 277.292 149.897 276.653 149.854ZM279.342 156.516C279.333 156.644 278.446 156.647 276.679 156.527C274.934 156.408 274.065 156.295 274.072 156.189L274.414 151.176C274.426 151.006 275.304 150.98 277.049 151.099C278.816 151.22 279.696 151.333 279.688 151.44L279.342 156.516ZM51.906 176.485L53.2126 157.329C53.2489 156.797 53.4049 156.391 53.6806 156.111C53.9791 155.81 54.3411 155.674 54.7668 155.703L60.0984 156.067C63.4826 156.298 65.9892 157.324 67.6183 159.146C69.2688 160.969 69.9691 163.711 69.7194 167.372C69.1852 175.205 65.5765 178.893 58.8933 178.437L53.434 178.065C52.3485 177.991 51.8392 177.464 51.906 176.485ZM59.0462 162.09L58.395 171.635C58.3646 172.082 58.3769 172.372 58.432 172.504C58.4886 172.615 58.6765 172.681 58.9958 172.703C60.1664 172.783 61.0795 172.406 61.7349 171.574C62.4117 170.744 62.819 169.318 62.9569 167.296C63.0963 165.252 62.8678 163.9 62.2714 163.24C61.6962 162.58 60.7276 162.204 59.3654 162.111L59.0462 162.09ZM83.446 179.246C82.0514 179.942 80.3005 180.218 78.1934 180.074C76.0863 179.93 74.3577 179.096 73.0077 177.571C71.6591 176.025 71.0712 173.986 71.244 171.453C71.4182 168.899 72.25 166.893 73.7394 165.433C75.2501 163.975 77.0697 163.319 79.1981 163.464C81.3265 163.609 82.9283 164.264 84.0036 165.428C85.1002 166.593 85.5955 167.952 85.4895 169.506C85.2543 172.954 83.1573 174.543 79.1985 174.273L76.9956 174.123C76.9521 174.761 77.0919 175.22 77.415 175.499C77.7608 175.757 78.2743 175.91 78.9554 175.957C80.4453 176.058 81.8839 175.814 83.2712 175.225C83.2939 175.205 83.3796 175.36 83.5281 175.691C83.9764 176.641 84.1789 177.435 84.1353 178.074C84.0932 178.691 83.8634 179.082 83.446 179.246ZM80.0846 169.747C80.1456 168.853 79.7397 168.376 78.8671 168.317C78.4627 168.289 78.1028 168.393 77.7874 168.628C77.4947 168.843 77.3324 169.185 77.3005 169.653L77.233 170.643L78.957 170.761C79.6594 170.808 80.0352 170.471 80.0846 169.747ZM89.6474 168.892C89.1241 167.787 88.8849 166.905 88.9299 166.245C88.9764 165.564 89.187 165.14 89.5619 164.973C90.8114 164.523 92.4897 164.371 94.5968 164.514C96.7252 164.66 98.1916 165.262 98.996 166.322C99.8019 167.361 100.139 168.848 100.007 170.785L99.6626 175.829L100.748 175.903C101.11 175.928 101.372 176.16 101.535 176.599C101.718 177.039 101.785 177.631 101.734 178.376C101.683 179.121 101.442 179.842 101.009 180.54C100.598 181.239 100.073 181.567 99.4346 181.523C98.2852 181.445 97.3804 181.073 96.7202 180.408C96.4183 180.131 96.1946 179.805 96.049 179.432C94.9858 180.599 93.4219 181.113 91.3573 180.972C89.8036 180.866 88.5324 180.223 87.5437 179.044C86.555 177.865 86.1122 176.52 86.2152 175.008C86.4519 171.539 88.6454 169.946 92.7957 170.229L94.5517 170.349L94.5734 170.03C94.6112 169.476 94.5394 169.118 94.358 168.956C94.1993 168.775 93.7901 168.661 93.1303 168.616C92.3215 168.561 91.1605 168.653 89.6474 168.892ZM91.8008 174.94C91.7689 175.409 91.8719 175.779 92.1099 176.052C92.3493 176.303 92.6606 176.442 93.0437 176.468C93.4481 176.496 93.8208 176.361 94.1619 176.064L94.3295 173.605L93.4356 173.544C92.414 173.475 91.8691 173.94 91.8008 174.94ZM112.927 159.863C112.949 159.544 113.8 159.441 115.482 159.556C116.057 159.595 116.713 159.683 117.453 159.819C118.214 159.935 118.591 160.057 118.582 160.185L117.435 177.01L118.552 177.086C119.084 177.122 119.403 177.625 119.508 178.594C119.531 178.874 119.526 179.258 119.493 179.748C119.461 180.216 119.273 180.781 118.929 181.441C118.439 182.349 117.726 182.771 116.789 182.707C116.087 182.659 115.469 182.478 114.934 182.163C114.421 181.85 114.079 181.538 113.907 181.227L113.648 180.793C112.401 181.841 110.894 182.305 109.127 182.184C107.361 182.064 105.9 181.226 104.744 179.672C103.589 178.118 103.1 176.032 103.279 173.414C103.459 170.775 104.257 168.787 105.674 167.451C107.092 166.094 108.791 165.483 110.77 165.618C111.345 165.657 111.926 165.761 112.513 165.929L112.927 159.863ZM111.124 170.774C109.933 170.692 109.263 171.727 109.117 173.876C109.043 174.962 109.159 175.761 109.466 176.274C109.775 176.765 110.131 177.025 110.536 177.052C110.961 177.081 111.378 176.928 111.786 176.592L112.156 171.165C111.809 170.927 111.465 170.797 111.124 170.774ZM127.218 182.841C127.205 183.032 126.113 183.054 123.942 182.906C122.241 182.769 121.395 182.625 121.406 182.476L122.889 160.735C122.91 160.416 123.954 160.326 126.018 160.467C127.823 160.655 128.72 160.823 128.71 160.972L127.218 182.841ZM135.944 183.5C135.933 183.67 134.948 183.689 132.99 183.555C131.053 183.423 130.09 183.283 130.1 183.134L131.169 167.458C131.179 167.309 132.153 167.301 134.09 167.433C136.048 167.566 137.022 167.697 137.014 167.825L135.944 183.5ZM137.142 165.941C137.132 166.09 136.148 166.098 134.19 165.964C132.253 165.832 131.289 165.702 131.298 165.574L131.611 160.977C131.626 160.764 132.601 160.724 134.538 160.856C136.496 160.99 137.471 161.12 137.462 161.248L137.142 165.941ZM145.504 184.152C145.494 184.301 144.723 184.323 143.19 184.219C141.066 184.01 140.01 183.82 140.022 183.65L140.727 173.306L139.897 173.249C139.344 173.212 139.014 172.719 138.907 171.771C138.884 171.491 138.881 171.213 138.9 170.936C138.945 170.276 139.118 169.625 139.418 168.983C139.865 168.073 140.493 167.645 141.302 167.7C142.111 167.755 142.821 167.996 143.434 168.423C144.046 168.85 144.446 169.262 144.632 169.659C146.052 168.601 147.687 168.136 149.539 168.262C151.391 168.388 152.697 168.98 153.459 170.037C154.221 171.094 154.524 172.761 154.369 175.038L153.716 184.616C153.698 184.872 152.774 184.937 150.944 184.812C149.135 184.689 148.239 184.499 148.256 184.244L148.886 175.017C148.958 173.953 148.622 173.395 147.877 173.345C147.664 173.33 147.36 173.406 146.964 173.571C146.569 173.715 146.315 173.826 146.203 173.904L145.504 184.152ZM168.53 185.049C167.135 185.745 165.384 186.021 163.277 185.878C161.17 185.734 159.441 184.9 158.091 183.375C156.743 181.829 156.155 179.79 156.328 177.257C156.502 174.703 157.334 172.696 158.823 171.237C160.334 169.779 162.153 169.122 164.282 169.268C166.41 169.413 168.012 170.067 169.087 171.231C170.184 172.396 170.679 173.756 170.573 175.31C170.338 178.758 168.241 180.347 164.282 180.077L162.079 179.926C162.036 180.565 162.175 181.024 162.499 181.302C162.844 181.561 163.358 181.714 164.039 181.76C165.529 181.862 166.967 181.618 168.355 181.028C168.378 181.008 168.463 181.164 168.612 181.495C169.06 182.445 169.262 183.239 169.219 183.877C169.177 184.495 168.947 184.885 168.53 185.049ZM165.168 175.55C165.229 174.657 164.823 174.18 163.951 174.12C163.546 174.093 163.186 174.196 162.871 174.432C162.578 174.647 162.416 174.989 162.384 175.457L162.317 176.446L164.041 176.564C164.743 176.612 165.119 176.274 165.168 175.55ZM185.302 186.867C185.285 187.122 184.382 187.189 182.595 187.067C180.472 186.837 179.417 186.626 179.43 186.434L180.201 175.133L178.573 175.021C178.147 174.992 177.985 174.244 178.085 172.775C178.111 172.392 178.175 171.926 178.276 171.377C178.399 170.829 178.578 170.563 178.812 170.579L180.504 170.695L180.696 167.885C180.725 167.46 181.633 167.308 183.421 167.43C185.23 167.553 186.123 167.785 186.1 168.126L185.96 170.169L185.931 171.065L188.645 171.25C189.007 171.275 189.137 172.032 189.035 173.522C188.934 175.012 188.702 175.744 188.34 175.72L186.073 175.565L185.302 186.867ZM191.202 185.569C189.982 184.011 189.461 181.933 189.638 179.336C189.815 176.74 190.614 174.752 192.034 173.374C193.475 171.997 195.323 171.385 197.579 171.539C199.835 171.693 201.573 172.549 202.793 174.108C204.012 175.666 204.533 177.744 204.356 180.34C204.179 182.937 203.38 184.925 201.961 186.303C200.541 187.682 198.703 188.294 196.447 188.14C194.191 187.986 192.442 187.129 191.202 185.569ZM197.216 176.87C196.024 176.789 195.361 177.728 195.227 179.686C195.094 181.644 195.623 182.663 196.815 182.745C198.028 182.828 198.701 181.89 198.835 179.932C198.969 177.974 198.429 176.953 197.216 176.87ZM212.754 188.739C212.744 188.888 211.973 188.911 210.44 188.806C208.316 188.597 207.26 188.407 207.272 188.237L207.977 177.893L207.147 177.837C206.594 177.799 206.264 177.306 206.157 176.358C206.134 176.078 206.131 175.8 206.15 175.523C206.195 174.864 206.368 174.212 206.668 173.57C207.115 172.66 207.743 172.232 208.552 172.287C209.361 172.342 210.071 172.583 210.684 173.01C211.296 173.437 211.696 173.849 211.882 174.246C213.302 173.189 214.937 172.723 216.789 172.849C218.641 172.975 219.947 173.567 220.709 174.624C221.471 175.681 221.774 177.348 221.619 179.625L220.966 189.203C220.948 189.459 220.024 189.524 218.194 189.399C216.385 189.276 215.489 189.086 215.506 188.831L216.136 179.604C216.208 178.54 215.872 177.983 215.127 177.932C214.914 177.917 214.61 177.993 214.214 178.158C213.819 178.302 213.565 178.413 213.453 178.491L212.754 188.739ZM229.508 189.882C229.497 190.052 228.512 190.071 226.554 189.937C224.617 189.805 223.653 189.665 223.664 189.516L224.733 173.84C224.743 173.691 225.717 173.683 227.653 173.815C229.611 173.948 230.586 174.079 230.577 174.207L229.508 189.882ZM230.706 172.323C230.696 172.472 229.712 172.48 227.754 172.346C225.817 172.214 224.853 172.084 224.861 171.956L225.175 167.359C225.189 167.146 226.165 167.106 228.102 167.238C230.06 167.372 231.035 167.502 231.026 167.63L230.706 172.323ZM238.257 190.671C236.192 190.531 234.641 189.762 233.603 188.365C232.566 186.947 232.137 184.94 232.314 182.344C232.492 179.726 233.366 177.733 234.935 176.364C236.526 174.976 238.546 174.365 240.993 174.532C243.462 174.701 245.458 175.382 246.98 176.576L245.896 192.475C245.788 194.05 245.068 195.209 243.734 195.952C242.399 196.717 240.731 197.03 238.73 196.894C236.73 196.758 234.959 196.38 233.419 195.762C233.241 195.237 233.166 194.772 233.194 194.367C233.286 193.005 233.578 192.02 234.069 191.412C235.453 192.127 236.953 192.539 238.571 192.649C239.742 192.729 240.355 192.354 240.412 191.524L240.477 190.566C239.55 190.674 238.81 190.709 238.257 190.671ZM240.479 179.725C239.053 179.628 238.267 180.654 238.12 182.804C238.028 184.145 238.246 185.036 238.771 185.478C239.114 185.78 239.467 185.943 239.829 185.967C240.19 185.992 240.512 185.982 240.793 185.937L241.207 179.871C240.956 179.79 240.713 179.741 240.479 179.725ZM254.191 191.534C254.178 191.725 253.278 191.76 251.49 191.638C249.723 191.518 248.85 191.308 248.87 191.01L250.362 169.141C250.372 168.992 250.709 168.908 251.374 168.889C252.038 168.871 252.593 168.876 253.04 168.907C254.828 169.029 255.709 169.281 255.683 169.664L255.247 176.05C256.464 175.769 257.381 175.65 257.998 175.692C259.616 175.802 260.863 176.326 261.74 177.262C262.618 178.178 262.978 179.806 262.818 182.147L262.143 192.044C262.13 192.236 261.293 192.275 259.633 192.161C257.764 191.97 256.835 191.8 256.845 191.651L257.486 182.264C257.557 181.221 257.252 180.677 256.571 180.63C256.102 180.598 255.544 180.785 254.897 181.19L254.191 191.534ZM272.194 192.794C272.177 193.049 271.274 193.116 269.486 192.994C267.364 192.764 266.309 192.553 266.322 192.361L267.093 181.059L265.465 180.948C265.039 180.919 264.876 180.17 264.977 178.702C265.003 178.319 265.067 177.853 265.168 177.304C265.291 176.756 265.47 176.49 265.704 176.506L267.396 176.622L267.587 173.812C267.616 173.387 268.525 173.235 270.313 173.357C272.122 173.48 273.015 173.712 272.992 174.053L272.852 176.096L272.823 176.992L275.537 177.177C275.899 177.202 276.029 177.959 275.927 179.449C275.825 180.939 275.594 181.671 275.232 181.647L272.965 181.492L272.194 192.794ZM282.834 187.361C281.152 187.247 280.326 186.987 280.353 186.583L280.436 185.369C280.501 184.412 281.383 183.242 283.081 181.861C283.714 181.349 284.3 180.758 284.837 180.089C285.396 179.421 285.695 178.8 285.734 178.225C285.807 177.161 285.226 176.587 283.992 176.503C282.778 176.42 281.527 176.741 280.237 177.466C279.484 176.602 278.982 175.648 278.733 174.605C278.628 174.255 278.585 173.953 278.602 173.698C278.621 173.421 278.691 173.169 278.814 172.942C279.022 172.4 279.845 171.933 281.283 171.539C282.742 171.147 284.26 171.004 285.835 171.112C288.218 171.274 289.971 171.907 291.094 173.01C292.216 174.113 292.717 175.548 292.596 177.314C292.541 178.123 292.284 178.907 291.826 179.667C291.391 180.407 290.866 181.056 290.25 181.613C289.658 182.149 289.067 182.654 288.479 183.128C287.051 184.313 286.315 185.236 286.27 185.896L286.204 186.853C286.187 187.109 285.78 187.273 284.984 187.347C284.189 187.4 283.472 187.405 282.834 187.361ZM285.523 194.024C285.514 194.151 284.626 194.155 282.86 194.034C281.115 193.915 280.246 193.803 280.253 193.696L280.595 188.684C280.606 188.514 281.485 188.488 283.23 188.607C284.997 188.728 285.876 188.841 285.869 188.947L285.523 194.024Z" fill="white"/>
</g>
<defs>
<clipPath id="clip0_19_12">
<rect width="361.188" height="224.863" fill="white" transform="matrix(0.997682 0.0680515 0.0680515 -0.997682 0.177818 224.341)"/>
</clipPath>
</defs>
</svg>
