<svg width="496" height="284" viewBox="0 0 496 284" fill="none" xmlns="http://www.w3.org/2000/svg">
<g clip-path="url(#clip0_18_6)">
<path d="M42.1304 139.257C69.6767 165.803 111.31 176.905 150.959 180.925C175.79 183.443 200.764 183.596 225.676 184.426C228.657 184.519 231.636 184.627 234.614 184.75C237.954 184.887 239.143 185.146 241.41 187.258C245.518 191.038 249.657 194.789 253.825 198.512C262.171 205.963 270.641 213.309 279.235 220.548C298.966 237.169 319.334 253.202 340.337 268.645L335.111 271.574C329.74 244.063 324.363 216.551 318.982 189.04C318.665 187.389 320.226 185.163 322.52 185.59C352.377 191.154 381.455 201.964 412.302 201.66C424.704 201.54 437.317 199.604 448.301 194.719C460.06 189.485 468.629 180.803 473.558 170.315C478.72 159.33 480.337 147.356 481.416 135.565C482.506 123.626 483.424 111.545 482.362 99.5383C481.327 87.7869 478.211 75.9476 470.936 65.6845C464.566 56.6982 455.044 49.6446 444.311 44.7116C421.868 34.4849 395.263 32.6729 370.533 31.9659C336.904 31.0097 303.244 30.8231 269.647 30.2843L166.103 28.5975C149.946 28.3311 133.778 27.9014 117.626 27.8753C104.292 27.8592 90.9095 28.3067 77.8466 30.4766C53.256 34.5871 31.3143 46.1699 23.0921 67.1975C15.5117 86.5507 19.9599 108.832 31.7161 126.651C34.6928 131.139 38.1926 135.363 42.1604 139.259C45.0722 142.13 39.9774 145.898 37.0651 143.033C20.3827 126.581 11.2591 104.373 12.7416 82.8523C14.2512 60.8404 27.9039 41.7456 50.9715 31.8638C75.738 21.258 105.167 21.7828 132.475 22.2299L242.815 24.0248L352.413 25.8065C379.722 26.2473 408.052 26.5132 434.273 34.65C446.165 38.3279 457.287 43.7813 466.309 51.4486C476.22 59.8728 482.66 70.6676 486.032 82.1227C489.625 94.3136 489.96 107.054 489.406 119.472C488.851 131.89 487.944 144.582 485.156 156.804C482.399 168.899 477.263 180.593 467.398 189.671C458.896 197.507 447.459 202.478 435.368 205.079C406.267 211.338 376.716 204.239 348.435 197.313C339.708 195.175 330.971 193.062 322.111 191.407L325.648 187.977C331.051 215.477 336.428 242.982 341.779 270.492C342.22 272.755 338.987 275.213 336.554 273.42C300.842 247.158 266.878 219.196 234.83 189.67L237.174 190.691C181.072 188.245 121.734 190.782 70.6513 166.092C58.0469 160.055 46.681 152.258 37.0351 143.031C34.0909 140.19 39.1857 136.422 42.1304 139.257Z" fill="#FFFAEF"/>
<path d="M454.051 80.3024C447.238 67.6146 433.957 58.2493 418.148 54.9854C413.883 54.0886 416.105 48.6196 420.356 49.5091C437.879 53.2765 452.562 63.7256 460.134 77.817C461.973 81.2553 455.918 83.7815 454.056 80.3353L454.051 80.3024Z" fill="#FFFAEF"/>
<path d="M82.5581 148.178C60.4831 140.951 43.2441 125.574 35.7365 106.412C34.3248 102.835 41.0052 101.793 42.4043 105.33C49.3402 122.499 64.912 136.234 84.7659 142.695C88.8871 144.03 86.7091 149.515 82.5583 148.172L82.5581 148.178Z" fill="#FFFAEF"/>
<path d="M90.2048 64.0209C90.2123 63.9145 90.6765 63.8509 91.5976 63.8302C92.5414 63.7896 93.3113 63.7902 93.9071 63.8321C96.2693 63.9982 97.4819 64.3936 97.5449 65.0182L99.3027 79.2565L102.876 65.393C103.047 64.7848 104.388 64.569 106.899 64.7455C107.516 64.7889 108.29 64.8861 109.22 65.037C110.151 65.188 110.612 65.3167 110.605 65.4231L103.469 86.1577C103.36 86.4922 102.716 86.6715 101.538 86.6956C99.7161 86.76 98.0639 86.6866 96.5817 86.4755C95.1223 86.2445 94.3605 85.9771 94.2964 85.6732L90.2048 64.0209ZM112.556 75.9859C112.035 74.88 111.798 73.9972 111.844 73.3375C111.892 72.6565 112.103 72.233 112.479 72.0669C113.729 71.6201 115.408 71.4708 117.514 71.6189C119.643 71.7685 121.108 72.3741 121.91 73.4357C122.714 74.4759 123.047 75.9643 122.911 77.9009L122.557 82.9444L123.642 83.0207C124.004 83.0462 124.265 83.2784 124.427 83.7175C124.61 84.1581 124.675 84.7508 124.623 85.4956C124.57 86.2404 124.327 86.9612 123.893 87.6578C123.481 88.3559 122.955 88.6825 122.317 88.6376C121.168 88.5568 120.264 88.1832 119.605 87.5167C119.303 87.2389 119.08 86.9131 118.936 86.5393C117.87 87.7048 116.305 88.215 114.241 88.0698C112.687 87.9606 111.417 87.3153 110.431 86.1339C109.445 84.9525 109.005 83.6063 109.111 82.0954C109.355 78.6266 111.552 77.0381 115.701 77.3298L117.457 77.4533L117.48 77.1341C117.518 76.5808 117.447 76.2229 117.266 76.0605C117.108 75.8783 116.699 75.764 116.039 75.7176C115.231 75.6607 114.07 75.7502 112.556 75.9859ZM114.697 82.039C114.664 82.5072 114.766 82.8779 115.003 83.1512C115.242 83.4033 115.553 83.5428 115.936 83.5697C116.341 83.5981 116.714 83.4639 117.055 83.1672L117.228 80.7092L116.334 80.6464C115.313 80.5746 114.767 81.0388 114.697 82.039ZM132.048 88.7444C132.035 88.9359 130.943 88.9554 128.772 88.8028C127.071 88.6618 126.226 88.5168 126.237 88.3679L127.765 66.6295C127.787 66.3103 128.831 66.2233 130.895 66.3684C132.699 66.5594 133.596 66.7294 133.586 66.8784L132.048 88.7444ZM135.867 73.4225C135.884 73.1884 136.807 73.1357 138.637 73.2644C140.467 73.393 141.374 73.5744 141.358 73.8085L140.702 83.1295C140.627 84.1935 140.931 84.7495 141.612 84.7974C142.122 84.8333 142.713 84.6502 143.382 84.2482L144.103 74.0015C144.118 73.7887 145.03 73.7459 146.839 73.873C148.647 74.0002 149.544 74.1702 149.529 74.383L148.793 84.8532L149.623 84.9115C150.347 84.9624 150.66 85.6794 150.563 87.0627C150.513 87.765 150.314 88.4674 149.965 89.17C149.474 90.0764 148.866 90.5042 148.143 90.4533C146.717 90.3531 145.705 89.6938 145.106 88.4755L145.072 88.5052C143.693 89.5631 142.259 90.0397 140.769 89.9349C138.705 89.7898 137.219 89.1721 136.312 88.0818C135.407 86.9702 135.038 85.2227 135.205 82.8392L135.867 73.4225ZM164.408 90.41C163.012 91.1031 161.261 91.3756 159.154 91.2275C157.047 91.0794 155.32 90.2415 153.974 88.714C152.628 87.1651 152.045 85.1245 152.223 82.5921C152.402 80.0384 153.238 78.0334 154.731 76.5772C156.244 75.1224 158.065 74.4699 160.193 74.6195C162.321 74.7691 163.922 75.4269 164.995 76.5931C166.089 77.7607 166.581 79.1212 166.472 80.6747C166.23 84.1222 164.129 85.7068 160.171 85.4285L157.969 85.2737C157.924 85.9121 158.063 86.371 158.385 86.6503C158.73 86.9098 159.244 87.0635 159.925 87.1114C161.414 87.2161 162.853 86.9751 164.242 86.3884C164.265 86.3686 164.35 86.5243 164.498 86.8555C164.944 87.8065 165.145 88.6012 165.1 89.2396C165.057 89.8567 164.826 90.2469 164.408 90.41ZM161.067 80.9042C161.13 80.0104 160.725 79.5328 159.852 79.4715C159.448 79.4431 159.088 79.5461 158.772 79.7805C158.479 79.9951 158.316 80.3365 158.283 80.8047L158.213 81.7943L159.937 81.9155C160.639 81.9648 161.016 81.6277 161.067 80.9042ZM173.816 76.0584C173.832 75.8243 174.809 75.7753 176.745 75.9115C178.703 76.0491 179.706 76.2266 179.755 76.4439L181.524 84.1389L184.261 76.6965C184.358 76.5322 185.023 76.4935 186.258 76.5802C189.088 76.7792 190.43 77.0126 190.283 77.2802L181.28 98.1081C181.249 98.2343 180.66 98.257 179.511 98.1762C178.383 98.0969 177.332 97.9803 176.359 97.8264C175.385 97.6937 174.923 97.5757 174.973 97.4722L178.221 90.964L173.816 76.0584ZM192.472 91.3565C191.256 89.7953 190.739 87.7166 190.922 85.1204C191.104 82.5241 191.907 80.5382 193.33 79.1626C194.773 77.7884 196.623 77.1807 198.879 77.3393C201.135 77.4979 202.871 78.3577 204.087 79.9189C205.303 81.48 205.82 83.5587 205.637 86.155C205.455 88.7512 204.652 90.7372 203.23 92.1128C201.807 93.4884 199.968 94.0969 197.712 93.9383C195.456 93.7797 193.71 92.9191 192.472 91.3565ZM198.504 82.6701C197.313 82.5863 196.648 83.5234 196.51 85.4812C196.373 87.439 196.9 88.4598 198.091 88.5436C199.304 88.6289 199.98 87.6926 200.117 85.7348C200.255 83.777 199.717 82.7554 198.504 82.6701ZM208.282 78.5136C208.299 78.2795 209.222 78.2268 211.052 78.3555C212.882 78.4842 213.789 78.6655 213.773 78.8996L213.117 88.2206C213.042 89.2847 213.346 89.8406 214.027 89.8885C214.537 89.9244 215.128 89.7413 215.797 89.3393L216.518 79.0926C216.533 78.8798 217.445 78.837 219.254 78.9642C221.062 79.0913 221.959 79.2613 221.944 79.4741L221.208 89.9443L222.038 90.0026C222.762 90.0535 223.075 90.7706 222.978 92.1538C222.928 92.8561 222.729 93.5585 222.38 94.2611C221.889 95.1676 221.281 95.5953 220.558 95.5445C219.132 95.4442 218.12 94.785 217.521 93.5666L217.487 93.5963C216.108 94.6542 214.674 95.1308 213.184 95.0261C211.12 94.8809 209.634 94.2632 208.727 93.1729C207.822 92.0613 207.453 90.3138 207.62 87.9304L208.282 78.5136ZM231.689 95.9742C231.679 96.1232 230.705 96.1296 228.769 95.9934C226.835 95.8147 225.873 95.6615 225.882 95.5338L226.627 84.936L225.765 84.8754C225.425 84.8515 225.162 84.6298 224.978 84.2106C224.816 83.7715 224.757 83.2434 224.801 82.6262C224.962 80.3279 225.724 79.2266 227.086 79.3224C228.044 79.3897 228.821 79.7437 229.417 80.3845C230.015 81.0039 230.288 81.6861 230.236 82.4309C230.744 81.5898 231.388 80.9401 232.169 80.4817C232.973 80.0035 233.768 79.7921 234.556 79.8475C235.79 79.9343 236.512 80.3059 236.723 80.9622C236.775 81.137 236.789 81.3946 236.765 81.7351C236.742 82.0543 236.595 82.632 236.322 83.4683C236.071 84.3061 235.825 84.909 235.585 85.2771C235.346 85.6452 235.204 85.8277 235.162 85.8247C235.119 85.8217 234.922 85.7331 234.571 85.5587C234.243 85.3645 233.94 85.2577 233.663 85.2382C232.855 85.1813 232.405 85.7913 232.316 87.0682L231.689 95.9742ZM250.724 97.1521C250.707 97.4074 249.804 97.4723 248.016 97.3466C245.894 97.1119 244.84 96.8987 244.853 96.7072L245.648 85.4071L244.02 85.2926C243.594 85.2627 243.433 84.5136 243.536 83.0452C243.563 82.6621 243.628 82.1962 243.731 81.6474C243.855 81.1001 244.034 80.8347 244.268 80.8511L245.96 80.9701L246.157 78.161C246.187 77.7354 247.096 77.5854 248.883 77.7111C250.692 77.8383 251.585 78.0721 251.561 78.4126L251.417 80.4555L251.386 81.3516L254.1 81.5423C254.461 81.5678 254.59 82.3253 254.485 83.815C254.38 85.3046 254.147 86.0367 253.785 86.0113L251.519 85.852L250.724 97.1521ZM260.976 97.8728C260.964 98.0431 259.98 98.0594 258.022 97.9217C256.085 97.7856 255.122 97.643 255.133 97.4941L256.235 81.8207C256.245 81.6718 257.219 81.6654 259.155 81.8015C261.113 81.9392 262.087 82.0718 262.078 82.1995L260.976 97.8728ZM262.211 80.3162C262.2 80.4651 261.216 80.4708 259.258 80.3331C257.322 80.197 256.358 80.0651 256.367 79.9374L256.69 75.3407C256.705 75.1279 257.681 75.0896 259.617 75.2258C261.575 75.3634 262.55 75.4961 262.541 75.6238L262.211 80.3162ZM278.321 99.1243C278.311 99.2733 277.391 99.2835 275.56 99.1548C273.752 99.0276 272.854 98.8683 272.867 98.6767L273.52 89.3877C273.595 88.3236 273.281 87.7669 272.579 87.7176C272.217 87.6921 271.722 87.8925 271.093 88.3188L270.375 98.5336C270.36 98.7464 269.438 98.7885 267.608 98.6598C265.799 98.5327 264.902 98.352 264.919 98.1179L265.653 87.6797L264.855 87.6236C264.153 87.5742 263.853 86.8153 263.956 85.347C264.003 84.6873 264.177 84.0259 264.481 83.3629C264.887 82.4504 265.473 82.0212 266.239 82.075C267.005 82.1289 267.725 82.3827 268.399 82.8364C269.094 83.2916 269.504 83.7053 269.627 84.0776C271.029 82.9999 272.528 82.5171 274.124 82.6294C275.741 82.7431 277.004 83.3344 277.913 84.4034C279.132 83.484 280.551 83.0812 282.168 83.1949C285.679 83.4418 287.285 85.7039 286.984 89.9814L286.302 99.6854C286.291 99.8344 285.371 99.8445 283.541 99.7158C281.732 99.5887 280.834 99.4293 280.848 99.2378L281.501 89.9487C281.576 88.8847 281.262 88.328 280.56 88.2786C280.176 88.2517 279.671 88.4514 279.042 88.8776L278.321 99.1243ZM301.133 100.022C299.737 100.716 297.986 100.988 295.879 100.84C293.772 100.692 292.045 99.854 290.699 98.3264C289.353 96.7776 288.77 94.737 288.948 92.2045C289.127 89.6508 289.963 87.6459 291.456 86.1896C292.969 84.7349 294.79 84.0823 296.918 84.2319C299.046 84.3815 300.647 85.0394 301.72 86.2055C302.814 87.3731 303.306 88.7337 303.197 90.2872C302.955 93.7347 300.854 95.3193 296.896 95.041L294.694 94.8861C294.649 95.5246 294.788 95.9834 295.11 96.2627C295.455 96.5223 295.969 96.676 296.65 96.7238C298.139 96.8286 299.578 96.5876 300.967 96.0008C300.99 95.981 301.075 96.1367 301.223 96.4679C301.669 97.4189 301.87 98.2136 301.825 98.852C301.782 99.4692 301.551 99.8593 301.133 100.022ZM297.792 90.5166C297.855 89.6229 297.45 89.1453 296.577 89.0839C296.173 89.0555 295.813 89.1585 295.497 89.3929C295.204 89.6076 295.041 89.949 295.008 90.4172L294.938 91.4067L296.662 91.5279C297.364 91.5773 297.741 91.2402 297.792 90.5166ZM310.269 94.7942C310.26 94.9219 309.489 94.9319 307.957 94.8242C306.446 94.7179 305.695 94.6116 305.702 94.5052L306.17 78.7232C306.182 78.5529 307.156 78.5359 309.093 78.672C311.051 78.8097 312.024 78.953 312.014 79.102L310.269 94.7942ZM304.867 96.3392C304.878 96.1902 305.862 96.1846 307.82 96.3222C309.799 96.4614 310.784 96.5948 310.775 96.7225L310.452 101.319C310.437 101.532 309.44 101.569 307.461 101.43C305.503 101.292 304.528 101.159 304.537 101.032L304.867 96.3392ZM88.6906 115.217C89.0725 115.564 89.7334 116.049 90.6735 116.671C91.6348 117.295 92.5623 117.638 93.4561 117.701C94.3712 117.765 94.8534 117.447 94.9028 116.744C94.9252 116.425 94.817 116.139 94.5781 115.887C94.3407 115.614 93.8927 115.294 93.2341 114.927C92.5756 114.56 92.0821 114.279 91.7535 114.085C91.4265 113.869 90.9899 113.539 90.4438 113.095C89.9204 112.63 89.5254 112.164 89.2589 111.696C88.493 110.423 88.1758 108.85 88.3075 106.978C88.4391 105.105 89.2415 103.579 90.7145 102.399C92.2103 101.2 94.0861 100.679 96.3419 100.838C97.8741 100.946 99.2773 101.215 100.551 101.647C101.827 102.058 102.468 102.53 102.473 103.065C102.468 103.129 102.464 103.193 102.459 103.257C102.407 104.002 102.106 104.932 101.557 106.049C101.01 107.144 100.636 107.748 100.435 107.862C99.1227 107.064 97.9237 106.627 96.8384 106.551C95.7744 106.476 95.2154 106.822 95.1616 107.588C95.1287 108.056 95.4932 108.499 96.2551 108.916C96.4194 109.013 96.6559 109.147 96.9646 109.319C97.2734 109.49 97.6224 109.696 98.0118 109.938C98.4239 110.159 98.8529 110.446 99.2986 110.798C99.7671 111.13 100.26 111.571 100.777 112.121C101.831 113.264 102.296 114.708 102.173 116.453C102.013 118.73 101.254 120.548 99.897 121.907C98.5397 123.266 96.5508 123.875 93.9302 123.733C92.6534 123.643 91.5011 123.456 90.4733 123.169C89.4667 122.885 88.6021 122.407 87.8794 121.736C87.1567 121.065 86.826 120.293 86.8873 119.421C86.9487 118.548 87.1689 117.698 87.5479 116.869C87.9285 116.019 88.3094 115.468 88.6906 115.217ZM111.467 124.453C111.449 124.708 110.546 124.773 108.759 124.647C106.637 124.413 105.582 124.2 105.596 124.008L106.39 112.708L104.762 112.593C104.337 112.564 104.175 111.814 104.279 110.346C104.306 109.963 104.37 109.497 104.473 108.948C104.597 108.401 104.776 108.135 105.01 108.152L106.702 108.271L106.9 105.462C106.929 105.036 107.838 104.886 109.626 105.012C111.435 105.139 112.327 105.373 112.303 105.713L112.16 107.756L112.129 108.652L114.842 108.843C115.204 108.869 115.332 109.626 115.228 111.116C115.123 112.605 114.89 113.338 114.528 113.312L112.261 113.153L111.467 124.453ZM116.813 109.174C116.829 108.94 117.753 108.887 119.583 109.016C121.413 109.145 122.32 109.326 122.303 109.56L121.648 118.881C121.573 119.945 121.876 120.501 122.557 120.549C123.068 120.585 123.658 120.402 124.328 120L125.049 109.753C125.064 109.54 125.975 109.498 127.784 109.625C129.593 109.752 130.49 109.922 130.475 110.135L129.739 120.605L130.569 120.663C131.293 120.714 131.606 121.431 131.508 122.814C131.459 123.517 131.26 124.219 130.911 124.922C130.42 125.828 129.812 126.256 129.089 126.205C127.663 126.105 126.651 125.446 126.052 124.227L126.018 124.257C124.639 125.315 123.205 125.791 121.715 125.687C119.651 125.542 118.165 124.924 117.258 123.834C116.352 122.722 115.983 120.974 116.151 118.591L116.813 109.174ZM142.861 104.59C142.883 104.27 143.735 104.17 145.416 104.288C145.991 104.329 146.648 104.418 147.386 104.555C148.148 104.673 148.524 104.795 148.515 104.923L147.333 121.746L148.45 121.824C148.982 121.862 149.299 122.365 149.402 123.335C149.425 123.614 149.42 123.999 149.385 124.488C149.352 124.956 149.163 125.521 148.817 126.181C148.326 127.087 147.612 127.507 146.676 127.442C145.973 127.392 145.355 127.21 144.821 126.894C144.309 126.58 143.967 126.267 143.797 125.956L143.539 125.521C142.289 126.566 140.781 127.027 139.014 126.903C137.248 126.779 135.789 125.938 134.636 124.382C133.484 122.825 133 120.738 133.184 118.12C133.37 115.482 134.172 113.496 135.592 112.163C137.013 110.808 138.713 110.201 140.692 110.34C141.267 110.38 141.847 110.485 142.434 110.655L142.861 104.59ZM141.035 115.497C139.844 115.413 139.172 116.446 139.021 118.595C138.945 119.68 139.06 120.48 139.366 120.993C139.673 121.485 140.029 121.745 140.434 121.774C140.859 121.804 141.276 121.651 141.685 121.316L142.066 115.89C141.72 115.652 141.376 115.52 141.035 115.497ZM151.27 111.565C151.287 111.331 152.263 111.282 154.2 111.418C156.157 111.555 157.161 111.733 157.21 111.95L158.978 119.645L161.715 112.203C161.812 112.038 162.478 112 163.712 112.087C166.542 112.285 167.884 112.519 167.737 112.786L158.734 133.614C158.704 133.741 158.114 133.763 156.965 133.682C155.837 133.603 154.787 133.487 153.814 133.333C152.839 133.2 152.377 133.082 152.427 132.979L155.676 126.47L151.27 111.565ZM175.512 123.374C177.163 124.538 178.488 125.155 179.488 125.225C180.127 125.27 180.462 125.069 180.493 124.622C180.515 124.303 179.991 123.849 178.921 123.261C176.337 121.988 175.132 120.118 175.305 117.649C175.416 116.074 176.075 114.913 177.283 114.163C178.49 113.414 179.892 113.096 181.488 113.208C183.105 113.322 184.455 113.588 185.538 114.006C186.642 114.426 187.174 114.912 187.136 115.466C187.103 115.934 186.825 116.534 186.303 117.268C185.802 118.002 185.465 118.396 185.29 118.447C184.411 117.872 183.439 117.547 182.375 117.473C181.8 117.432 181.499 117.614 181.471 118.019C181.453 118.274 181.543 118.505 181.743 118.711C181.965 118.898 182.364 119.151 182.94 119.469C183.518 119.766 183.991 120.035 184.359 120.275C184.749 120.516 185.175 120.845 185.637 121.263C186.602 122.143 187.039 123.233 186.947 124.531C186.828 126.233 186.166 127.577 184.964 128.561C183.763 129.525 182.023 129.927 179.746 129.767C178.235 129.66 176.881 129.308 175.682 128.711C174.484 128.113 173.916 127.368 173.979 126.474C174.021 125.878 174.203 125.26 174.527 124.62C174.871 123.981 175.199 123.566 175.512 123.374ZM203.28 130.94C203.27 131.089 202.35 131.099 200.519 130.97C198.711 130.843 197.813 130.684 197.826 130.492L198.479 121.203C198.554 120.139 198.24 119.582 197.538 119.533C197.176 119.508 196.681 119.708 196.052 120.134L195.334 130.349C195.319 130.562 194.397 130.604 192.567 130.475C190.758 130.348 189.861 130.168 189.878 129.934L190.612 119.495L189.814 119.439C189.111 119.39 188.812 118.631 188.915 117.163C188.962 116.503 189.136 115.841 189.44 115.178C189.846 114.266 190.432 113.837 191.198 113.891C191.964 113.944 192.684 114.198 193.358 114.652C194.053 115.107 194.463 115.521 194.586 115.893C195.988 114.815 197.487 114.333 199.083 114.445C200.7 114.559 201.963 115.15 202.872 116.219C204.091 115.3 205.51 114.897 207.127 115.01C210.638 115.257 212.244 117.519 211.943 121.797L211.261 131.501C211.25 131.65 210.33 131.66 208.5 131.531C206.691 131.404 205.793 131.245 205.807 131.053L206.46 121.764C206.534 120.7 206.221 120.144 205.518 120.094C205.135 120.067 204.629 120.267 204.001 120.693L203.28 130.94ZM216.791 120.406C216.27 119.3 216.033 118.417 216.079 117.757C216.127 117.076 216.339 116.653 216.714 116.486C217.964 116.04 219.643 115.89 221.75 116.039C223.878 116.188 225.343 116.794 226.145 117.855C226.949 118.896 227.282 120.384 227.146 122.32L226.792 127.364L227.877 127.44C228.239 127.466 228.501 127.698 228.662 128.137C228.845 128.578 228.91 129.17 228.858 129.915C228.806 130.66 228.562 131.381 228.128 132.077C227.716 132.775 227.19 133.102 226.552 133.057C225.403 132.976 224.499 132.603 223.84 131.936C223.539 131.658 223.316 131.333 223.171 130.959C222.105 132.124 220.54 132.635 218.476 132.489C216.922 132.38 215.652 131.735 214.666 130.553C213.68 129.372 213.24 128.026 213.346 126.515C213.59 123.046 215.787 121.458 219.937 121.749L221.692 121.873L221.715 121.554C221.754 121 221.683 120.642 221.501 120.48C221.343 120.298 220.934 120.184 220.275 120.137C219.466 120.08 218.305 120.17 216.791 120.406ZM218.932 126.459C218.899 126.927 219.001 127.297 219.239 127.571C219.478 127.823 219.789 127.962 220.172 127.989C220.576 128.018 220.949 127.884 221.291 127.587L221.463 125.129L220.57 125.066C219.548 124.994 219.002 125.458 218.932 126.459ZM237.449 133.47C237.438 133.619 236.465 133.626 234.528 133.49C232.595 133.311 231.633 133.158 231.642 133.03L232.387 122.432L231.525 122.372C231.184 122.348 230.922 122.126 230.737 121.707C230.576 121.268 230.517 120.74 230.56 120.122C230.722 117.824 231.483 116.723 232.845 116.819C233.803 116.886 234.58 117.24 235.177 117.881C235.775 118.5 236.048 119.182 235.995 119.927C236.503 119.086 237.148 118.436 237.929 117.978C238.732 117.5 239.528 117.288 240.315 117.344C241.549 117.431 242.272 117.802 242.482 118.458C242.534 118.633 242.548 118.891 242.524 119.231C242.502 119.551 242.354 120.128 242.081 120.965C241.83 121.802 241.585 122.405 241.345 122.773C241.105 123.141 240.964 123.324 240.921 123.321C240.879 123.318 240.682 123.229 240.331 123.055C240.002 122.861 239.699 122.754 239.423 122.734C238.614 122.678 238.165 123.288 238.075 124.564L237.449 133.47ZM250.468 134.225C250.45 134.481 249.547 134.546 247.759 134.42C245.637 134.185 244.583 133.972 244.596 133.78L245.391 122.48L243.763 122.366C243.337 122.336 243.176 121.587 243.279 120.118C243.306 119.735 243.371 119.269 243.474 118.721C243.598 118.173 243.777 117.908 244.011 117.924L245.703 118.043L245.9 115.234C245.93 114.809 246.839 114.659 248.626 114.784C250.435 114.912 251.328 115.145 251.304 115.486L251.16 117.529L251.129 118.425L253.843 118.616C254.204 118.641 254.333 119.399 254.228 120.888C254.123 122.378 253.89 123.11 253.528 123.085L251.262 122.925L250.468 134.225ZM266.991 134.713C265.595 135.407 263.844 135.679 261.737 135.531C259.63 135.383 257.903 134.545 256.557 133.017C255.211 131.469 254.628 129.428 254.806 126.896C254.985 124.342 255.821 122.337 257.314 120.881C258.827 119.426 260.648 118.773 262.776 118.923C264.904 119.073 266.505 119.73 267.578 120.896C268.672 122.064 269.164 123.425 269.055 124.978C268.813 128.426 266.712 130.01 262.754 129.732L260.552 129.577C260.507 130.216 260.646 130.674 260.968 130.954C261.313 131.213 261.827 131.367 262.508 131.415C263.997 131.52 265.436 131.279 266.825 130.692C266.848 130.672 266.933 130.828 267.081 131.159C267.527 132.11 267.728 132.905 267.683 133.543C267.64 134.16 267.409 134.55 266.991 134.713ZM263.65 125.208C263.713 124.314 263.308 123.836 262.435 123.775C262.031 123.746 261.671 123.849 261.355 124.084C261.062 124.299 260.899 124.64 260.866 125.108L260.796 126.098L262.52 126.219C263.222 126.268 263.599 125.931 263.65 125.208ZM277.382 136.278C277.371 136.427 276.398 136.433 274.461 136.297C272.528 136.118 271.565 135.965 271.574 135.838L272.319 125.24L271.457 125.179C271.117 125.155 270.855 124.934 270.67 124.514C270.509 124.075 270.449 123.547 270.493 122.93C270.654 120.632 271.416 119.53 272.778 119.626C273.736 119.693 274.513 120.047 275.109 120.688C275.707 121.308 275.98 121.99 275.928 122.735C276.436 121.894 277.081 121.244 277.861 120.785C278.665 120.307 279.46 120.096 280.248 120.151C281.482 120.238 282.204 120.61 282.415 121.266C282.467 121.441 282.481 121.698 282.457 122.039C282.434 122.358 282.287 122.936 282.014 123.772C281.763 124.61 281.517 125.213 281.277 125.581C281.038 125.949 280.897 126.131 280.854 126.128C280.811 126.125 280.615 126.037 280.263 125.862C279.935 125.668 279.632 125.561 279.355 125.542C278.547 125.485 278.098 126.095 278.008 127.372L277.382 136.278ZM285.771 132.152C285.923 131.821 286.839 131.714 288.52 131.832C290.202 131.95 291.026 132.233 290.995 132.68L290.74 135.389L288.584 139.6C288.264 140.197 287.38 140.445 285.933 140.344C284.507 140.243 283.619 139.946 283.269 139.451C283.191 139.338 283.156 139.229 283.164 139.122C283.17 139.037 283.187 138.953 283.214 138.869L285.439 135.048L285.771 132.152ZM305.472 138.092C305.462 138.241 304.69 138.262 303.158 138.154C301.035 137.941 299.979 137.749 299.991 137.579L300.718 127.236L299.888 127.178C299.335 127.139 299.006 126.645 298.901 125.697C298.878 125.417 298.877 125.139 298.896 124.863C298.942 124.203 299.116 123.552 299.418 122.91C299.867 122.001 300.496 121.575 301.304 121.632C302.113 121.688 302.823 121.931 303.435 122.359C304.046 122.787 304.445 123.2 304.631 123.598C306.052 122.543 307.689 122.08 309.54 122.211C311.392 122.341 312.697 122.935 313.457 123.994C314.216 125.052 314.516 126.72 314.356 128.997L313.683 138.573C313.665 138.829 312.741 138.892 310.911 138.763C309.102 138.636 308.206 138.445 308.224 138.19L308.873 128.964C308.948 127.9 308.613 127.342 307.868 127.29C307.655 127.275 307.35 127.35 306.954 127.514C306.559 127.658 306.305 127.768 306.193 127.846L305.472 138.092ZM317.874 137.264C316.658 135.703 316.141 133.624 316.323 131.028C316.506 128.432 317.309 126.446 318.731 125.07C320.175 123.696 322.025 123.088 324.281 123.247C326.537 123.406 328.273 124.265 329.489 125.827C330.705 127.388 331.222 129.466 331.039 132.063C330.857 134.659 330.054 136.645 328.631 138.02C327.209 139.396 325.37 140.005 323.114 139.846C320.858 139.687 319.111 138.827 317.874 137.264ZM323.906 128.578C322.714 128.494 322.05 129.431 321.912 131.389C321.774 133.347 322.301 134.368 323.493 134.451C324.706 134.537 325.381 133.6 325.519 131.642C325.657 129.685 325.119 128.663 323.906 128.578ZM340.09 140.526C340.072 140.782 339.169 140.846 337.382 140.721C335.26 140.486 334.205 140.273 334.219 140.081L335.013 128.781L333.385 128.667C332.96 128.637 332.799 127.888 332.902 126.419C332.929 126.036 332.994 125.57 333.096 125.022C333.22 124.474 333.399 124.209 333.633 124.225L335.325 124.344L335.523 121.535C335.553 121.11 336.461 120.96 338.249 121.085C340.058 121.212 340.95 121.446 340.926 121.787L340.783 123.83L340.752 124.726L343.465 124.917C343.827 124.942 343.955 125.699 343.851 127.189C343.746 128.679 343.513 129.411 343.151 129.385L340.885 129.226L340.09 140.526ZM355.85 141.602C355.837 141.794 354.936 141.827 353.148 141.701C351.382 141.577 350.509 141.366 350.53 141.068L352.068 119.202C352.078 119.053 352.415 118.97 353.08 118.952C353.744 118.935 354.299 118.942 354.746 118.973C356.534 119.099 357.414 119.353 357.387 119.736L356.938 126.12C358.156 125.842 359.073 125.725 359.69 125.768C361.307 125.882 362.553 126.408 363.428 127.347C364.305 128.264 364.661 129.893 364.496 132.233L363.801 142.129C363.787 142.321 362.95 142.358 361.291 142.241C359.422 142.046 358.493 141.874 358.504 141.725L359.164 132.34C359.237 131.297 358.933 130.752 358.252 130.704C357.784 130.671 357.226 130.856 356.577 131.26L355.85 141.602ZM369.321 131.129C368.8 130.023 368.562 129.14 368.609 128.481C368.657 127.8 368.868 127.376 369.244 127.21C370.494 126.763 372.173 126.614 374.279 126.762C376.407 126.912 377.873 127.517 378.675 128.579C379.478 129.619 379.812 131.108 379.676 133.044L379.321 138.088L380.407 138.164C380.769 138.189 381.03 138.422 381.192 138.861C381.375 139.301 381.44 139.894 381.388 140.639C381.335 141.384 381.092 142.104 380.658 142.801C380.246 143.499 379.72 143.826 379.082 143.781C377.932 143.7 377.028 143.326 376.37 142.66C376.068 142.382 375.845 142.056 375.7 141.683C374.635 142.848 373.07 143.358 371.006 143.213C369.452 143.104 368.182 142.458 367.196 141.277C366.21 140.096 365.77 138.749 365.876 137.239C366.12 133.77 368.317 132.181 372.466 132.473L374.222 132.596L374.244 132.277C374.283 131.724 374.212 131.366 374.031 131.204C373.873 131.021 373.464 130.907 372.804 130.861C371.996 130.804 370.834 130.893 369.321 131.129ZM371.462 137.182C371.429 137.65 371.531 138.021 371.768 138.294C372.007 138.546 372.318 138.686 372.701 138.713C373.106 138.741 373.479 138.607 373.82 138.31L373.993 135.852L373.099 135.79C372.078 135.718 371.532 136.182 371.462 137.182ZM389.979 144.194C389.968 144.343 388.995 144.349 387.058 144.213C385.125 144.035 384.162 143.881 384.171 143.754L384.916 133.156L384.055 133.095C383.714 133.071 383.452 132.85 383.267 132.43C383.106 131.991 383.046 131.463 383.09 130.846C383.251 128.548 384.013 127.446 385.375 127.542C386.333 127.61 387.11 127.964 387.706 128.604C388.304 129.224 388.577 129.906 388.525 130.651C389.033 129.81 389.678 129.16 390.458 128.702C391.262 128.223 392.057 128.012 392.845 128.067C394.079 128.154 394.801 128.526 395.012 129.182C395.064 129.357 395.078 129.614 395.054 129.955C395.031 130.274 394.884 130.852 394.611 131.688C394.36 132.526 394.114 133.129 393.875 133.497C393.635 133.865 393.494 134.048 393.451 134.045C393.409 134.042 393.212 133.953 392.86 133.779C392.532 133.584 392.229 133.477 391.953 133.458C391.144 133.401 390.695 134.011 390.605 135.288L389.979 144.194ZM405.276 123.039C405.298 122.72 406.15 122.619 407.831 122.737C408.406 122.778 409.062 122.867 409.801 123.004C410.563 123.122 410.939 123.244 410.93 123.372L409.747 140.195L410.865 140.273C411.397 140.311 411.714 140.814 411.817 141.784C411.84 142.063 411.835 142.448 411.8 142.937C411.767 143.406 411.578 143.97 411.232 144.63C410.741 145.536 410.027 145.956 409.09 145.891C408.388 145.841 407.77 145.659 407.236 145.343C406.724 145.029 406.382 144.716 406.211 144.405L405.953 143.97C404.704 145.015 403.196 145.476 401.429 145.352C399.663 145.228 398.204 144.387 397.051 142.831C395.899 141.274 395.415 139.187 395.599 136.569C395.784 133.931 396.587 131.945 398.007 130.612C399.428 129.257 401.128 128.65 403.107 128.789C403.682 128.829 404.262 128.934 404.849 129.104L405.276 123.039ZM403.45 133.946C402.258 133.862 401.587 134.895 401.436 137.044C401.36 138.129 401.474 138.929 401.781 139.442C402.088 139.934 402.444 140.194 402.848 140.223C403.274 140.253 403.691 140.1 404.1 139.765L404.481 134.339C404.134 134.101 403.791 133.97 403.45 133.946ZM425.818 145.88C424.422 146.573 422.671 146.845 420.564 146.697C418.457 146.549 416.73 145.711 415.383 144.184C414.038 142.635 413.454 140.594 413.632 138.062C413.812 135.508 414.648 133.503 416.14 132.047C417.654 130.592 419.475 129.94 421.603 130.089C423.731 130.239 425.332 130.897 426.404 132.063C427.499 133.23 427.991 134.591 427.882 136.144C427.639 139.592 425.539 141.177 421.581 140.898L419.378 140.743C419.333 141.382 419.472 141.841 419.795 142.12C420.14 142.38 420.653 142.533 421.334 142.581C422.824 142.686 424.263 142.445 425.652 141.858C425.674 141.838 425.76 141.994 425.908 142.325C426.354 143.276 426.555 144.071 426.51 144.709C426.466 145.326 426.236 145.717 425.818 145.88ZM422.476 136.374C422.539 135.48 422.134 135.003 421.262 134.941C420.858 134.913 420.497 135.016 420.182 135.25C419.888 135.465 419.725 135.806 419.693 136.274L419.623 137.264L421.347 137.385C422.049 137.435 422.426 137.097 422.476 136.374ZM436.208 147.444C436.198 147.593 435.224 147.6 433.288 147.463C431.354 147.285 430.392 147.132 430.401 147.004L431.146 136.406L430.284 136.345C429.944 136.321 429.681 136.1 429.497 135.681C429.335 135.241 429.276 134.713 429.32 134.096C429.481 131.798 430.243 130.697 431.605 130.792C432.562 130.86 433.34 131.214 433.936 131.854C434.534 132.474 434.807 133.156 434.755 133.901C435.263 133.06 435.907 132.41 436.688 131.952C437.492 131.474 438.287 131.262 439.074 131.318C440.309 131.404 441.031 131.776 441.242 132.432C441.293 132.607 441.307 132.865 441.283 133.205C441.261 133.524 441.113 134.102 440.841 134.938C440.589 135.776 440.344 136.379 440.104 136.747C439.864 137.115 439.723 137.298 439.681 137.295C439.638 137.292 439.441 137.203 439.09 137.029C438.761 136.834 438.459 136.728 438.182 136.708C437.373 136.651 436.924 137.261 436.835 138.538L436.208 147.444Z" fill="white"/>
</g>
<defs>
<clipPath id="clip0_18_6">
<rect width="478.24" height="250" fill="white" transform="matrix(-0.997538 -0.0701319 -0.0701319 0.997538 495.533 34.4735)"/>
</clipPath>
</defs>
</svg>
